<svg xmlns="http://www.w3.org/2000/svg" width="37.991" height="37.991" viewBox="0 0 37.991 37.991"><g id="Grupo_515" data-name="Grupo 515" transform="translate(0 0)"><path id="Caminho_332" fill="#6a3483" d="M943.136,195.608a19,19,0,1,0-19-19,18.994,18.994,0,0,0,19,19" data-name="Caminho 332" transform="translate(-924.14 -157.617)"/><path id="Caminho_333" fill="#fff" d="M936.825,183.563h-3.7V171.714h3.7Zm-1.946-13.331h-.027a2.055,2.055,0,0,1-2.209-2.054,2.256,2.256,0,1,1,2.236,2.054Zm16.76,13.331h-4.2v-6.132c0-1.6-.657-2.7-2.1-2.7a2.12,2.12,0,0,0-2,1.451,2.726,2.726,0,0,0-.09.969v6.411h-4.159s.054-10.861,0-11.849h4.159v1.86c.246-.813,1.574-1.973,3.7-1.973,2.631,0,4.7,1.7,4.7,5.374Z" data-name="Caminho 333" transform="translate(-923.146 -156.623)"/></g></svg>