<svg xmlns="http://www.w3.org/2000/svg" width="37.99" height="37.991" viewBox="0 0 37.99 37.991">
  <g id="Grupo_519" data-name="Grupo 519" transform="translate(-55.743 0)">
    <path id="Caminho_340" data-name="Caminho 340" d="M993.046,195.608a19,19,0,1,0-19-19,19,19,0,0,0,19,19" transform="translate(-918.307 -157.617)" fill="#00578d"/>
    <path id="Caminho_341" data-name="Caminho 341" d="M997.88,166.121H986.227a3.675,3.675,0,0,0-3.671,3.671v11.653a3.675,3.675,0,0,0,3.671,3.671H997.88a3.676,3.676,0,0,0,3.672-3.671V169.792A3.676,3.676,0,0,0,997.88,166.121Zm1.054,2.19.42,0v3.22l-3.21.01-.011-3.22Zm-9.59,5.358a3.337,3.337,0,1,1-.633,1.95A3.339,3.339,0,0,1,989.343,173.669Zm10.357,7.777a1.822,1.822,0,0,1-1.821,1.82H986.227a1.822,1.822,0,0,1-1.821-1.82v-7.777h2.836a5.194,5.194,0,1,0,9.622,0H999.7Z" transform="translate(-917.313 -156.624)" fill="#fff"/>
  </g>
</svg>
