<svg xmlns="http://www.w3.org/2000/svg" width="1412.965" height="767.222" viewBox="0 0 1412.965 767.222"><g id="Grupo_515" data-name="Grupo 515" transform="translate(-254.848 75)"><g id="Grupo_437" data-name="Grupo 437" opacity=".36" transform="translate(1506.813 -75) rotate(90)" style="mix-blend-mode:multiply;isolation:isolate"><g id="Grupo_367" data-name="Grupo 367" transform="translate(0 0)"><circle id="Elipse_3" cx="9.247" cy="9.247" r="9.247" fill="#00578d" data-name="Elipse 3"/><circle id="Elipse_4" cx="9.247" cy="9.247" r="9.247" fill="#00578d" data-name="Elipse 4" transform="translate(49.685)"/><circle id="Elipse_5" cx="9.247" cy="9.247" r="9.247" fill="#00578d" data-name="Elipse 5" transform="translate(99.02)"/><circle id="Elipse_6" cx="9.247" cy="9.247" r="9.247" fill="#00578d" data-name="Elipse 6" transform="translate(142.058)"/><circle id="Elipse_7" cx="9.247" cy="9.247" r="9.247" fill="#00578d" data-name="Elipse 7" transform="translate(192.093)"/><circle id="Elipse_8" cx="9.247" cy="9.247" r="9.247" fill="#00578d" data-name="Elipse 8" transform="translate(240.728)"/></g><g id="Grupo_368" data-name="Grupo 368" transform="translate(0 37.789)"><circle id="Elipse_9" cx="9.247" cy="9.247" r="9.247" fill="#00578d" data-name="Elipse 9"/><circle id="Elipse_10" cx="9.247" cy="9.247" r="9.247" fill="#00578d" data-name="Elipse 10" transform="translate(49.685)"/><circle id="Elipse_11" cx="9.247" cy="9.247" r="9.247" fill="#00578d" data-name="Elipse 11" transform="translate(99.02)"/><circle id="Elipse_12" cx="9.247" cy="9.247" r="9.247" fill="#00578d" data-name="Elipse 12" transform="translate(142.058)"/><circle id="Elipse_13" cx="9.247" cy="9.247" r="9.247" fill="#00578d" data-name="Elipse 13" transform="translate(192.093)"/><circle id="Elipse_14" cx="9.247" cy="9.247" r="9.247" fill="#00578d" data-name="Elipse 14" transform="translate(240.728)"/></g><g id="Grupo_369" data-name="Grupo 369" transform="translate(0 75.577)"><circle id="Elipse_15" cx="9.247" cy="9.247" r="9.247" fill="#00578d" data-name="Elipse 15"/><circle id="Elipse_16" cx="9.247" cy="9.247" r="9.247" fill="#00578d" data-name="Elipse 16" transform="translate(49.685)"/><circle id="Elipse_17" cx="9.247" cy="9.247" r="9.247" fill="#00578d" data-name="Elipse 17" transform="translate(99.02)"/><circle id="Elipse_18" cx="9.247" cy="9.247" r="9.247" fill="#00578d" data-name="Elipse 18" transform="translate(142.058)"/><circle id="Elipse_19" cx="9.247" cy="9.247" r="9.247" fill="#00578d" data-name="Elipse 19" transform="translate(192.093)"/><circle id="Elipse_20" cx="9.247" cy="9.247" r="9.247" fill="#00578d" data-name="Elipse 20" transform="translate(240.728)"/></g><g id="Grupo_370" data-name="Grupo 370" transform="translate(0 113.366)"><circle id="Elipse_21" cx="9.247" cy="9.247" r="9.247" fill="#00578d" data-name="Elipse 21"/><circle id="Elipse_22" cx="9.247" cy="9.247" r="9.247" fill="#00578d" data-name="Elipse 22" transform="translate(49.685)"/><circle id="Elipse_23" cx="9.247" cy="9.247" r="9.247" fill="#00578d" data-name="Elipse 23" transform="translate(99.02)"/><circle id="Elipse_24" cx="9.247" cy="9.247" r="9.247" fill="#00578d" data-name="Elipse 24" transform="translate(142.058)"/><circle id="Elipse_25" cx="9.247" cy="9.247" r="9.247" fill="#00578d" data-name="Elipse 25" transform="translate(192.093)"/><circle id="Elipse_26" cx="9.247" cy="9.247" r="9.247" fill="#00578d" data-name="Elipse 26" transform="translate(240.728)"/></g><g id="Grupo_371" data-name="Grupo 371" transform="translate(0 151.155)"><circle id="Elipse_27" cx="9.247" cy="9.247" r="9.247" fill="#00578d" data-name="Elipse 27"/><circle id="Elipse_28" cx="9.247" cy="9.247" r="9.247" fill="#00578d" data-name="Elipse 28" transform="translate(49.685)"/><circle id="Elipse_29" cx="9.247" cy="9.247" r="9.247" fill="#00578d" data-name="Elipse 29" transform="translate(99.02)"/><circle id="Elipse_30" cx="9.247" cy="9.247" r="9.247" fill="#00578d" data-name="Elipse 30" transform="translate(142.058)"/><circle id="Elipse_31" cx="9.247" cy="9.247" r="9.247" fill="#00578d" data-name="Elipse 31" transform="translate(192.093)"/><circle id="Elipse_32" cx="9.247" cy="9.247" r="9.247" fill="#00578d" data-name="Elipse 32" transform="translate(240.728)"/></g><g id="Grupo_372" data-name="Grupo 372" transform="translate(0 188.944)"><circle id="Elipse_33" cx="9.247" cy="9.247" r="9.247" fill="#00578d" data-name="Elipse 33"/><circle id="Elipse_34" cx="9.247" cy="9.247" r="9.247" fill="#00578d" data-name="Elipse 34" transform="translate(49.685)"/><circle id="Elipse_35" cx="9.247" cy="9.247" r="9.247" fill="#00578d" data-name="Elipse 35" transform="translate(99.02)"/><circle id="Elipse_36" cx="9.247" cy="9.247" r="9.247" fill="#00578d" data-name="Elipse 36" transform="translate(142.058)"/><circle id="Elipse_37" cx="9.247" cy="9.247" r="9.247" fill="#00578d" data-name="Elipse 37" transform="translate(192.093)"/><circle id="Elipse_38" cx="9.247" cy="9.247" r="9.247" fill="#00578d" data-name="Elipse 38" transform="translate(240.728)"/></g><g id="Grupo_373" data-name="Grupo 373" transform="translate(0 224.983)"><circle id="Elipse_39" cx="9.247" cy="9.247" r="9.247" fill="#00578d" data-name="Elipse 39"/><circle id="Elipse_40" cx="9.247" cy="9.247" r="9.247" fill="#00578d" data-name="Elipse 40" transform="translate(49.685)"/><circle id="Elipse_41" cx="9.247" cy="9.247" r="9.247" fill="#00578d" data-name="Elipse 41" transform="translate(99.02)"/><circle id="Elipse_42" cx="9.247" cy="9.247" r="9.247" fill="#00578d" data-name="Elipse 42" transform="translate(142.058)"/><circle id="Elipse_43" cx="9.247" cy="9.247" r="9.247" fill="#00578d" data-name="Elipse 43" transform="translate(192.093)"/><circle id="Elipse_44" cx="9.247" cy="9.247" r="9.247" fill="#00578d" data-name="Elipse 44" transform="translate(240.728)"/></g><g id="Grupo_374" data-name="Grupo 374" transform="translate(0 263.471)"><circle id="Elipse_45" cx="9.247" cy="9.247" r="9.247" fill="#00578d" data-name="Elipse 45"/><circle id="Elipse_46" cx="9.247" cy="9.247" r="9.247" fill="#00578d" data-name="Elipse 46" transform="translate(49.685)"/><circle id="Elipse_47" cx="9.247" cy="9.247" r="9.247" fill="#00578d" data-name="Elipse 47" transform="translate(99.02)"/><circle id="Elipse_48" cx="9.247" cy="9.247" r="9.247" fill="#00578d" data-name="Elipse 48" transform="translate(142.058)"/><circle id="Elipse_49" cx="9.247" cy="9.247" r="9.247" fill="#00578d" data-name="Elipse 49" transform="translate(192.093)"/><circle id="Elipse_50" cx="9.247" cy="9.247" r="9.247" fill="#00578d" data-name="Elipse 50" transform="translate(240.728)"/></g></g><g id="Grupo_440" data-name="Grupo 440" opacity=".36" transform="translate(1667.813 433) rotate(90)" style="mix-blend-mode:multiply;isolation:isolate"><g id="Grupo_367-2" data-name="Grupo 367" transform="translate(0 0)"><circle id="Elipse_3-2" cx="9.247" cy="9.247" r="9.247" fill="#00578d" data-name="Elipse 3"/><circle id="Elipse_4-2" cx="9.247" cy="9.247" r="9.247" fill="#00578d" data-name="Elipse 4" transform="translate(49.685)"/><circle id="Elipse_5-2" cx="9.247" cy="9.247" r="9.247" fill="#00578d" data-name="Elipse 5" transform="translate(99.02)"/><circle id="Elipse_6-2" cx="9.247" cy="9.247" r="9.247" fill="#00578d" data-name="Elipse 6" transform="translate(142.058)"/><circle id="Elipse_7-2" cx="9.247" cy="9.247" r="9.247" fill="#00578d" data-name="Elipse 7" transform="translate(192.093)"/><circle id="Elipse_8-2" cx="9.247" cy="9.247" r="9.247" fill="#00578d" data-name="Elipse 8" transform="translate(240.728)"/></g><g id="Grupo_368-2" data-name="Grupo 368" transform="translate(0 37.789)"><circle id="Elipse_9-2" cx="9.247" cy="9.247" r="9.247" fill="#00578d" data-name="Elipse 9"/><circle id="Elipse_10-2" cx="9.247" cy="9.247" r="9.247" fill="#00578d" data-name="Elipse 10" transform="translate(49.685)"/><circle id="Elipse_11-2" cx="9.247" cy="9.247" r="9.247" fill="#00578d" data-name="Elipse 11" transform="translate(99.02)"/><circle id="Elipse_12-2" cx="9.247" cy="9.247" r="9.247" fill="#00578d" data-name="Elipse 12" transform="translate(142.058)"/><circle id="Elipse_13-2" cx="9.247" cy="9.247" r="9.247" fill="#00578d" data-name="Elipse 13" transform="translate(192.093)"/><circle id="Elipse_14-2" cx="9.247" cy="9.247" r="9.247" fill="#00578d" data-name="Elipse 14" transform="translate(240.728)"/></g><g id="Grupo_369-2" data-name="Grupo 369" transform="translate(0 75.577)"><circle id="Elipse_15-2" cx="9.247" cy="9.247" r="9.247" fill="#00578d" data-name="Elipse 15"/><circle id="Elipse_16-2" cx="9.247" cy="9.247" r="9.247" fill="#00578d" data-name="Elipse 16" transform="translate(49.685)"/><circle id="Elipse_17-2" cx="9.247" cy="9.247" r="9.247" fill="#00578d" data-name="Elipse 17" transform="translate(99.02)"/><circle id="Elipse_18-2" cx="9.247" cy="9.247" r="9.247" fill="#00578d" data-name="Elipse 18" transform="translate(142.058)"/><circle id="Elipse_19-2" cx="9.247" cy="9.247" r="9.247" fill="#00578d" data-name="Elipse 19" transform="translate(192.093)"/><circle id="Elipse_20-2" cx="9.247" cy="9.247" r="9.247" fill="#00578d" data-name="Elipse 20" transform="translate(240.728)"/></g><g id="Grupo_370-2" data-name="Grupo 370" transform="translate(0 113.366)"><circle id="Elipse_21-2" cx="9.247" cy="9.247" r="9.247" fill="#00578d" data-name="Elipse 21"/><circle id="Elipse_22-2" cx="9.247" cy="9.247" r="9.247" fill="#00578d" data-name="Elipse 22" transform="translate(49.685)"/><circle id="Elipse_23-2" cx="9.247" cy="9.247" r="9.247" fill="#00578d" data-name="Elipse 23" transform="translate(99.02)"/><circle id="Elipse_24-2" cx="9.247" cy="9.247" r="9.247" fill="#00578d" data-name="Elipse 24" transform="translate(142.058)"/><circle id="Elipse_25-2" cx="9.247" cy="9.247" r="9.247" fill="#00578d" data-name="Elipse 25" transform="translate(192.093)"/><circle id="Elipse_26-2" cx="9.247" cy="9.247" r="9.247" fill="#00578d" data-name="Elipse 26" transform="translate(240.728)"/></g><g id="Grupo_371-2" data-name="Grupo 371" transform="translate(0 151.155)"><circle id="Elipse_27-2" cx="9.247" cy="9.247" r="9.247" fill="#00578d" data-name="Elipse 27"/><circle id="Elipse_28-2" cx="9.247" cy="9.247" r="9.247" fill="#00578d" data-name="Elipse 28" transform="translate(49.685)"/><circle id="Elipse_29-2" cx="9.247" cy="9.247" r="9.247" fill="#00578d" data-name="Elipse 29" transform="translate(99.02)"/><circle id="Elipse_30-2" cx="9.247" cy="9.247" r="9.247" fill="#00578d" data-name="Elipse 30" transform="translate(142.058)"/><circle id="Elipse_31-2" cx="9.247" cy="9.247" r="9.247" fill="#00578d" data-name="Elipse 31" transform="translate(192.093)"/><circle id="Elipse_32-2" cx="9.247" cy="9.247" r="9.247" fill="#00578d" data-name="Elipse 32" transform="translate(240.728)"/></g><g id="Grupo_372-2" data-name="Grupo 372" transform="translate(0 188.944)"><circle id="Elipse_33-2" cx="9.247" cy="9.247" r="9.247" fill="#00578d" data-name="Elipse 33"/><circle id="Elipse_34-2" cx="9.247" cy="9.247" r="9.247" fill="#00578d" data-name="Elipse 34" transform="translate(49.685)"/><circle id="Elipse_35-2" cx="9.247" cy="9.247" r="9.247" fill="#00578d" data-name="Elipse 35" transform="translate(99.02)"/><circle id="Elipse_36-2" cx="9.247" cy="9.247" r="9.247" fill="#00578d" data-name="Elipse 36" transform="translate(142.058)"/><circle id="Elipse_37-2" cx="9.247" cy="9.247" r="9.247" fill="#00578d" data-name="Elipse 37" transform="translate(192.093)"/><circle id="Elipse_38-2" cx="9.247" cy="9.247" r="9.247" fill="#00578d" data-name="Elipse 38" transform="translate(240.728)"/></g><g id="Grupo_373-2" data-name="Grupo 373" transform="translate(0 224.983)"><circle id="Elipse_39-2" cx="9.247" cy="9.247" r="9.247" fill="#00578d" data-name="Elipse 39"/><circle id="Elipse_40-2" cx="9.247" cy="9.247" r="9.247" fill="#00578d" data-name="Elipse 40" transform="translate(49.685)"/><circle id="Elipse_41-2" cx="9.247" cy="9.247" r="9.247" fill="#00578d" data-name="Elipse 41" transform="translate(99.02)"/><circle id="Elipse_42-2" cx="9.247" cy="9.247" r="9.247" fill="#00578d" data-name="Elipse 42" transform="translate(142.058)"/><circle id="Elipse_43-2" cx="9.247" cy="9.247" r="9.247" fill="#00578d" data-name="Elipse 43" transform="translate(192.093)"/><circle id="Elipse_44-2" cx="9.247" cy="9.247" r="9.247" fill="#00578d" data-name="Elipse 44" transform="translate(240.728)"/></g><g id="Grupo_374-2" data-name="Grupo 374" transform="translate(0 263.471)"><circle id="Elipse_45-2" cx="9.247" cy="9.247" r="9.247" fill="#00578d" data-name="Elipse 45"/><circle id="Elipse_46-2" cx="9.247" cy="9.247" r="9.247" fill="#00578d" data-name="Elipse 46" transform="translate(49.685)"/><circle id="Elipse_47-2" cx="9.247" cy="9.247" r="9.247" fill="#00578d" data-name="Elipse 47" transform="translate(99.02)"/><circle id="Elipse_48-2" cx="9.247" cy="9.247" r="9.247" fill="#00578d" data-name="Elipse 48" transform="translate(142.058)"/><circle id="Elipse_49-2" cx="9.247" cy="9.247" r="9.247" fill="#00578d" data-name="Elipse 49" transform="translate(192.093)"/><circle id="Elipse_50-2" cx="9.247" cy="9.247" r="9.247" fill="#00578d" data-name="Elipse 50" transform="translate(240.728)"/></g></g><g id="Grupo_441" data-name="Grupo 441" opacity=".36" transform="translate(536.813 363) rotate(90)" style="mix-blend-mode:multiply;isolation:isolate"><g id="Grupo_367-3" data-name="Grupo 367" transform="translate(0 0)"><circle id="Elipse_3-3" cx="9.247" cy="9.247" r="9.247" fill="#00578d" data-name="Elipse 3"/><circle id="Elipse_4-3" cx="9.247" cy="9.247" r="9.247" fill="#00578d" data-name="Elipse 4" transform="translate(49.685)"/><circle id="Elipse_5-3" cx="9.247" cy="9.247" r="9.247" fill="#00578d" data-name="Elipse 5" transform="translate(99.02)"/><circle id="Elipse_6-3" cx="9.247" cy="9.247" r="9.247" fill="#00578d" data-name="Elipse 6" transform="translate(142.058)"/><circle id="Elipse_7-3" cx="9.247" cy="9.247" r="9.247" fill="#00578d" data-name="Elipse 7" transform="translate(192.093)"/><circle id="Elipse_8-3" cx="9.247" cy="9.247" r="9.247" fill="#00578d" data-name="Elipse 8" transform="translate(240.728)"/></g><g id="Grupo_368-3" data-name="Grupo 368" transform="translate(0 37.789)"><circle id="Elipse_9-3" cx="9.247" cy="9.247" r="9.247" fill="#00578d" data-name="Elipse 9"/><circle id="Elipse_10-3" cx="9.247" cy="9.247" r="9.247" fill="#00578d" data-name="Elipse 10" transform="translate(49.685)"/><circle id="Elipse_11-3" cx="9.247" cy="9.247" r="9.247" fill="#00578d" data-name="Elipse 11" transform="translate(99.02)"/><circle id="Elipse_12-3" cx="9.247" cy="9.247" r="9.247" fill="#00578d" data-name="Elipse 12" transform="translate(142.058)"/><circle id="Elipse_13-3" cx="9.247" cy="9.247" r="9.247" fill="#00578d" data-name="Elipse 13" transform="translate(192.093)"/><circle id="Elipse_14-3" cx="9.247" cy="9.247" r="9.247" fill="#00578d" data-name="Elipse 14" transform="translate(240.728)"/></g><g id="Grupo_369-3" data-name="Grupo 369" transform="translate(0 75.577)"><circle id="Elipse_15-3" cx="9.247" cy="9.247" r="9.247" fill="#00578d" data-name="Elipse 15"/><circle id="Elipse_16-3" cx="9.247" cy="9.247" r="9.247" fill="#00578d" data-name="Elipse 16" transform="translate(49.685)"/><circle id="Elipse_17-3" cx="9.247" cy="9.247" r="9.247" fill="#00578d" data-name="Elipse 17" transform="translate(99.02)"/><circle id="Elipse_18-3" cx="9.247" cy="9.247" r="9.247" fill="#00578d" data-name="Elipse 18" transform="translate(142.058)"/><circle id="Elipse_19-3" cx="9.247" cy="9.247" r="9.247" fill="#00578d" data-name="Elipse 19" transform="translate(192.093)"/><circle id="Elipse_20-3" cx="9.247" cy="9.247" r="9.247" fill="#00578d" data-name="Elipse 20" transform="translate(240.728)"/></g><g id="Grupo_370-3" data-name="Grupo 370" transform="translate(0 113.366)"><circle id="Elipse_21-3" cx="9.247" cy="9.247" r="9.247" fill="#00578d" data-name="Elipse 21"/><circle id="Elipse_22-3" cx="9.247" cy="9.247" r="9.247" fill="#00578d" data-name="Elipse 22" transform="translate(49.685)"/><circle id="Elipse_23-3" cx="9.247" cy="9.247" r="9.247" fill="#00578d" data-name="Elipse 23" transform="translate(99.02)"/><circle id="Elipse_24-3" cx="9.247" cy="9.247" r="9.247" fill="#00578d" data-name="Elipse 24" transform="translate(142.058)"/><circle id="Elipse_25-3" cx="9.247" cy="9.247" r="9.247" fill="#00578d" data-name="Elipse 25" transform="translate(192.093)"/><circle id="Elipse_26-3" cx="9.247" cy="9.247" r="9.247" fill="#00578d" data-name="Elipse 26" transform="translate(240.728)"/></g><g id="Grupo_371-3" data-name="Grupo 371" transform="translate(0 151.155)"><circle id="Elipse_27-3" cx="9.247" cy="9.247" r="9.247" fill="#00578d" data-name="Elipse 27"/><circle id="Elipse_28-3" cx="9.247" cy="9.247" r="9.247" fill="#00578d" data-name="Elipse 28" transform="translate(49.685)"/><circle id="Elipse_29-3" cx="9.247" cy="9.247" r="9.247" fill="#00578d" data-name="Elipse 29" transform="translate(99.02)"/><circle id="Elipse_30-3" cx="9.247" cy="9.247" r="9.247" fill="#00578d" data-name="Elipse 30" transform="translate(142.058)"/><circle id="Elipse_31-3" cx="9.247" cy="9.247" r="9.247" fill="#00578d" data-name="Elipse 31" transform="translate(192.093)"/><circle id="Elipse_32-3" cx="9.247" cy="9.247" r="9.247" fill="#00578d" data-name="Elipse 32" transform="translate(240.728)"/></g><g id="Grupo_372-3" data-name="Grupo 372" transform="translate(0 188.944)"><circle id="Elipse_33-3" cx="9.247" cy="9.247" r="9.247" fill="#00578d" data-name="Elipse 33"/><circle id="Elipse_34-3" cx="9.247" cy="9.247" r="9.247" fill="#00578d" data-name="Elipse 34" transform="translate(49.685)"/><circle id="Elipse_35-3" cx="9.247" cy="9.247" r="9.247" fill="#00578d" data-name="Elipse 35" transform="translate(99.02)"/><circle id="Elipse_36-3" cx="9.247" cy="9.247" r="9.247" fill="#00578d" data-name="Elipse 36" transform="translate(142.058)"/><circle id="Elipse_37-3" cx="9.247" cy="9.247" r="9.247" fill="#00578d" data-name="Elipse 37" transform="translate(192.093)"/><circle id="Elipse_38-3" cx="9.247" cy="9.247" r="9.247" fill="#00578d" data-name="Elipse 38" transform="translate(240.728)"/></g><g id="Grupo_373-3" data-name="Grupo 373" transform="translate(0 224.983)"><circle id="Elipse_39-3" cx="9.247" cy="9.247" r="9.247" fill="#00578d" data-name="Elipse 39"/><circle id="Elipse_40-3" cx="9.247" cy="9.247" r="9.247" fill="#00578d" data-name="Elipse 40" transform="translate(49.685)"/><circle id="Elipse_41-3" cx="9.247" cy="9.247" r="9.247" fill="#00578d" data-name="Elipse 41" transform="translate(99.02)"/><circle id="Elipse_42-3" cx="9.247" cy="9.247" r="9.247" fill="#00578d" data-name="Elipse 42" transform="translate(142.058)"/><circle id="Elipse_43-3" cx="9.247" cy="9.247" r="9.247" fill="#00578d" data-name="Elipse 43" transform="translate(192.093)"/><circle id="Elipse_44-3" cx="9.247" cy="9.247" r="9.247" fill="#00578d" data-name="Elipse 44" transform="translate(240.728)"/></g><g id="Grupo_374-3" data-name="Grupo 374" transform="translate(0 263.471)"><circle id="Elipse_45-3" cx="9.247" cy="9.247" r="9.247" fill="#00578d" data-name="Elipse 45"/><circle id="Elipse_46-3" cx="9.247" cy="9.247" r="9.247" fill="#00578d" data-name="Elipse 46" transform="translate(49.685)"/><circle id="Elipse_47-3" cx="9.247" cy="9.247" r="9.247" fill="#00578d" data-name="Elipse 47" transform="translate(99.02)"/><circle id="Elipse_48-3" cx="9.247" cy="9.247" r="9.247" fill="#00578d" data-name="Elipse 48" transform="translate(142.058)"/><circle id="Elipse_49-3" cx="9.247" cy="9.247" r="9.247" fill="#00578d" data-name="Elipse 49" transform="translate(192.093)"/><circle id="Elipse_50-3" cx="9.247" cy="9.247" r="9.247" fill="#00578d" data-name="Elipse 50" transform="translate(240.728)"/></g></g></g></svg>