<svg xmlns="http://www.w3.org/2000/svg" width="298" height="421" viewBox="0 0 298 421"><g transform="translate(-11 34)"><rect width="298" height="421" fill="#00578d" rx="10" transform="translate(11 -34)"/><g opacity=".25" transform="translate(-6.58 -66.324)"><circle cx="4.208" cy="4.208" r="4.208" fill="#572180" transform="translate(49.58 37.324)"/><circle cx="4.208" cy="4.208" r="4.208" fill="#572180" transform="translate(72.192 37.324)"/><circle cx="4.208" cy="4.208" r="4.208" fill="#572180" transform="translate(94.645 37.324)"/><circle cx="4.208" cy="4.208" r="4.208" fill="#572180" transform="translate(114.231 37.324)"/><circle cx="4.208" cy="4.208" r="4.208" fill="#572180" transform="translate(137.003 37.324)"/><circle cx="4.208" cy="4.208" r="4.208" fill="#572180" transform="translate(159.137 37.324)"/><circle cx="4.208" cy="4.208" r="4.208" fill="#572180" transform="translate(49.58 54.522)"/><circle cx="4.208" cy="4.208" r="4.208" fill="#572180" transform="translate(72.192 54.522)"/><circle cx="4.208" cy="4.208" r="4.208" fill="#572180" transform="translate(94.645 54.522)"/><circle cx="4.208" cy="4.208" r="4.208" fill="#572180" transform="translate(114.231 54.522)"/><circle cx="4.208" cy="4.208" r="4.208" fill="#572180" transform="translate(137.003 54.522)"/><circle cx="4.208" cy="4.208" r="4.208" fill="#572180" transform="translate(159.137 54.522)"/><circle cx="4.208" cy="4.208" r="4.208" fill="#572180" transform="translate(49.58 71.72)"/><circle cx="4.208" cy="4.208" r="4.208" fill="#572180" transform="translate(72.192 71.72)"/><circle cx="4.208" cy="4.208" r="4.208" fill="#572180" transform="translate(94.645 71.72)"/><circle cx="4.208" cy="4.208" r="4.208" fill="#572180" transform="translate(114.231 71.72)"/><circle cx="4.208" cy="4.208" r="4.208" fill="#572180" transform="translate(137.003 71.72)"/><circle cx="4.208" cy="4.208" r="4.208" fill="#572180" transform="translate(159.137 71.72)"/><circle cx="4.208" cy="4.208" r="4.208" fill="#572180" transform="translate(49.58 88.918)"/><circle cx="4.208" cy="4.208" r="4.208" fill="#572180" transform="translate(72.192 88.918)"/><circle cx="4.208" cy="4.208" r="4.208" fill="#572180" transform="translate(94.645 88.918)"/><circle cx="4.208" cy="4.208" r="4.208" fill="#572180" transform="translate(114.231 88.918)"/><circle cx="4.208" cy="4.208" r="4.208" fill="#572180" transform="translate(137.003 88.918)"/><circle cx="4.208" cy="4.208" r="4.208" fill="#572180" transform="translate(159.137 88.918)"/><circle cx="4.208" cy="4.208" r="4.208" fill="#572180" transform="translate(49.58 106.116)"/><circle cx="4.208" cy="4.208" r="4.208" fill="#572180" transform="translate(72.192 106.116)"/><circle cx="4.208" cy="4.208" r="4.208" fill="#572180" transform="translate(94.645 106.116)"/><circle cx="4.208" cy="4.208" r="4.208" fill="#572180" transform="translate(114.231 106.116)"/><circle cx="4.208" cy="4.208" r="4.208" fill="#572180" transform="translate(137.003 106.116)"/><circle cx="4.208" cy="4.208" r="4.208" fill="#572180" transform="translate(159.137 106.116)"/><circle cx="4.208" cy="4.208" r="4.208" fill="#572180" transform="translate(49.58 123.314)"/><circle cx="4.208" cy="4.208" r="4.208" fill="#572180" transform="translate(72.192 123.314)"/><circle cx="4.208" cy="4.208" r="4.208" fill="#572180" transform="translate(94.645 123.314)"/><circle cx="4.208" cy="4.208" r="4.208" fill="#572180" transform="translate(114.231 123.314)"/><circle cx="4.208" cy="4.208" r="4.208" fill="#572180" transform="translate(137.003 123.314)"/><circle cx="4.208" cy="4.208" r="4.208" fill="#572180" transform="translate(159.137 123.314)"/><circle cx="4.208" cy="4.208" r="4.208" fill="#572180" transform="translate(49.58 139.715)"/><circle cx="4.208" cy="4.208" r="4.208" fill="#572180" transform="translate(72.192 139.715)"/><circle cx="4.208" cy="4.208" r="4.208" fill="#572180" transform="translate(94.645 139.715)"/><circle cx="4.208" cy="4.208" r="4.208" fill="#572180" transform="translate(114.231 139.715)"/><circle cx="4.208" cy="4.208" r="4.208" fill="#572180" transform="translate(137.003 139.715)"/><circle cx="4.208" cy="4.208" r="4.208" fill="#572180" transform="translate(159.137 139.715)"/><circle cx="4.208" cy="4.208" r="4.208" fill="#572180" transform="translate(49.58 157.232)"/><circle cx="4.208" cy="4.208" r="4.208" fill="#572180" transform="translate(72.192 157.232)"/><circle cx="4.208" cy="4.208" r="4.208" fill="#572180" transform="translate(94.645 157.232)"/><circle cx="4.208" cy="4.208" r="4.208" fill="#572180" transform="translate(114.231 157.232)"/><circle cx="4.208" cy="4.208" r="4.208" fill="#572180" transform="translate(137.003 157.232)"/><circle cx="4.208" cy="4.208" r="4.208" fill="#572180" transform="translate(159.137 157.232)"/></g></g></svg>