<svg xmlns="http://www.w3.org/2000/svg" width="1454" height="841" viewBox="0 0 1454 841">
  <g id="Grupo_517" data-name="Grupo 517" transform="translate(-233 75)">
    <rect id="Retângulo_150" data-name="Retângulo 150" width="1454" height="794" rx="20" transform="translate(233 -28)" fill="#00578d"/>
    <g id="Grupo_515" data-name="Grupo 515">
      <g id="Grupo_437" data-name="Grupo 437" transform="translate(1506.813 -75) rotate(90)" opacity="0.36" style="mix-blend-mode: multiply;isolation: isolate">
        <g id="Grupo_367" data-name="Grupo 367" transform="translate(0 0)">
          <circle id="Elipse_3" data-name="Elipse 3" cx="9.247" cy="9.247" r="9.247" fill="#00578d"/>
          <circle id="Elipse_4" data-name="Elipse 4" cx="9.247" cy="9.247" r="9.247" transform="translate(49.685)" fill="#00578d"/>
          <circle id="Elipse_5" data-name="Elipse 5" cx="9.247" cy="9.247" r="9.247" transform="translate(99.02)" fill="#00578d"/>
          <circle id="Elipse_6" data-name="Elipse 6" cx="9.247" cy="9.247" r="9.247" transform="translate(142.058)" fill="#00578d"/>
          <circle id="Elipse_7" data-name="Elipse 7" cx="9.247" cy="9.247" r="9.247" transform="translate(192.093)" fill="#00578d"/>
          <circle id="Elipse_8" data-name="Elipse 8" cx="9.247" cy="9.247" r="9.247" transform="translate(240.728)" fill="#00578d"/>
        </g>
        <g id="Grupo_368" data-name="Grupo 368" transform="translate(0 37.789)">
          <circle id="Elipse_9" data-name="Elipse 9" cx="9.247" cy="9.247" r="9.247" fill="#00578d"/>
          <circle id="Elipse_10" data-name="Elipse 10" cx="9.247" cy="9.247" r="9.247" transform="translate(49.685)" fill="#00578d"/>
          <circle id="Elipse_11" data-name="Elipse 11" cx="9.247" cy="9.247" r="9.247" transform="translate(99.02)" fill="#00578d"/>
          <circle id="Elipse_12" data-name="Elipse 12" cx="9.247" cy="9.247" r="9.247" transform="translate(142.058)" fill="#00578d"/>
          <circle id="Elipse_13" data-name="Elipse 13" cx="9.247" cy="9.247" r="9.247" transform="translate(192.093)" fill="#00578d"/>
          <circle id="Elipse_14" data-name="Elipse 14" cx="9.247" cy="9.247" r="9.247" transform="translate(240.728)" fill="#00578d"/>
        </g>
        <g id="Grupo_369" data-name="Grupo 369" transform="translate(0 75.577)">
          <circle id="Elipse_15" data-name="Elipse 15" cx="9.247" cy="9.247" r="9.247" fill="#00578d"/>
          <circle id="Elipse_16" data-name="Elipse 16" cx="9.247" cy="9.247" r="9.247" transform="translate(49.685)" fill="#00578d"/>
          <circle id="Elipse_17" data-name="Elipse 17" cx="9.247" cy="9.247" r="9.247" transform="translate(99.02)" fill="#00578d"/>
          <circle id="Elipse_18" data-name="Elipse 18" cx="9.247" cy="9.247" r="9.247" transform="translate(142.058)" fill="#00578d"/>
          <circle id="Elipse_19" data-name="Elipse 19" cx="9.247" cy="9.247" r="9.247" transform="translate(192.093)" fill="#00578d"/>
          <circle id="Elipse_20" data-name="Elipse 20" cx="9.247" cy="9.247" r="9.247" transform="translate(240.728)" fill="#00578d"/>
        </g>
        <g id="Grupo_370" data-name="Grupo 370" transform="translate(0 113.366)">
          <circle id="Elipse_21" data-name="Elipse 21" cx="9.247" cy="9.247" r="9.247" fill="#00578d"/>
          <circle id="Elipse_22" data-name="Elipse 22" cx="9.247" cy="9.247" r="9.247" transform="translate(49.685)" fill="#00578d"/>
          <circle id="Elipse_23" data-name="Elipse 23" cx="9.247" cy="9.247" r="9.247" transform="translate(99.02)" fill="#00578d"/>
          <circle id="Elipse_24" data-name="Elipse 24" cx="9.247" cy="9.247" r="9.247" transform="translate(142.058)" fill="#00578d"/>
          <circle id="Elipse_25" data-name="Elipse 25" cx="9.247" cy="9.247" r="9.247" transform="translate(192.093)" fill="#00578d"/>
          <circle id="Elipse_26" data-name="Elipse 26" cx="9.247" cy="9.247" r="9.247" transform="translate(240.728)" fill="#00578d"/>
        </g>
        <g id="Grupo_371" data-name="Grupo 371" transform="translate(0 151.155)">
          <circle id="Elipse_27" data-name="Elipse 27" cx="9.247" cy="9.247" r="9.247" fill="#00578d"/>
          <circle id="Elipse_28" data-name="Elipse 28" cx="9.247" cy="9.247" r="9.247" transform="translate(49.685)" fill="#00578d"/>
          <circle id="Elipse_29" data-name="Elipse 29" cx="9.247" cy="9.247" r="9.247" transform="translate(99.02)" fill="#00578d"/>
          <circle id="Elipse_30" data-name="Elipse 30" cx="9.247" cy="9.247" r="9.247" transform="translate(142.058)" fill="#00578d"/>
          <circle id="Elipse_31" data-name="Elipse 31" cx="9.247" cy="9.247" r="9.247" transform="translate(192.093)" fill="#00578d"/>
          <circle id="Elipse_32" data-name="Elipse 32" cx="9.247" cy="9.247" r="9.247" transform="translate(240.728)" fill="#00578d"/>
        </g>
        <g id="Grupo_372" data-name="Grupo 372" transform="translate(0 188.944)">
          <circle id="Elipse_33" data-name="Elipse 33" cx="9.247" cy="9.247" r="9.247" fill="#00578d"/>
          <circle id="Elipse_34" data-name="Elipse 34" cx="9.247" cy="9.247" r="9.247" transform="translate(49.685)" fill="#00578d"/>
          <circle id="Elipse_35" data-name="Elipse 35" cx="9.247" cy="9.247" r="9.247" transform="translate(99.02)" fill="#00578d"/>
          <circle id="Elipse_36" data-name="Elipse 36" cx="9.247" cy="9.247" r="9.247" transform="translate(142.058)" fill="#00578d"/>
          <circle id="Elipse_37" data-name="Elipse 37" cx="9.247" cy="9.247" r="9.247" transform="translate(192.093)" fill="#00578d"/>
          <circle id="Elipse_38" data-name="Elipse 38" cx="9.247" cy="9.247" r="9.247" transform="translate(240.728)" fill="#00578d"/>
        </g>
        <g id="Grupo_373" data-name="Grupo 373" transform="translate(0 224.983)">
          <circle id="Elipse_39" data-name="Elipse 39" cx="9.247" cy="9.247" r="9.247" fill="#00578d"/>
          <circle id="Elipse_40" data-name="Elipse 40" cx="9.247" cy="9.247" r="9.247" transform="translate(49.685)" fill="#00578d"/>
          <circle id="Elipse_41" data-name="Elipse 41" cx="9.247" cy="9.247" r="9.247" transform="translate(99.02)" fill="#00578d"/>
          <circle id="Elipse_42" data-name="Elipse 42" cx="9.247" cy="9.247" r="9.247" transform="translate(142.058)" fill="#00578d"/>
          <circle id="Elipse_43" data-name="Elipse 43" cx="9.247" cy="9.247" r="9.247" transform="translate(192.093)" fill="#00578d"/>
          <circle id="Elipse_44" data-name="Elipse 44" cx="9.247" cy="9.247" r="9.247" transform="translate(240.728)" fill="#00578d"/>
        </g>
        <g id="Grupo_374" data-name="Grupo 374" transform="translate(0 263.471)">
          <circle id="Elipse_45" data-name="Elipse 45" cx="9.247" cy="9.247" r="9.247" fill="#00578d"/>
          <circle id="Elipse_46" data-name="Elipse 46" cx="9.247" cy="9.247" r="9.247" transform="translate(49.685)" fill="#00578d"/>
          <circle id="Elipse_47" data-name="Elipse 47" cx="9.247" cy="9.247" r="9.247" transform="translate(99.02)" fill="#00578d"/>
          <circle id="Elipse_48" data-name="Elipse 48" cx="9.247" cy="9.247" r="9.247" transform="translate(142.058)" fill="#00578d"/>
          <circle id="Elipse_49" data-name="Elipse 49" cx="9.247" cy="9.247" r="9.247" transform="translate(192.093)" fill="#00578d"/>
          <circle id="Elipse_50" data-name="Elipse 50" cx="9.247" cy="9.247" r="9.247" transform="translate(240.728)" fill="#00578d"/>
        </g>
      </g>
      <g id="Grupo_440" data-name="Grupo 440" transform="translate(1667.813 433) rotate(90)" opacity="0.36" style="mix-blend-mode: multiply;isolation: isolate">
        <g id="Grupo_367-2" data-name="Grupo 367" transform="translate(0 0)">
          <circle id="Elipse_3-2" data-name="Elipse 3" cx="9.247" cy="9.247" r="9.247" fill="#00578d"/>
          <circle id="Elipse_4-2" data-name="Elipse 4" cx="9.247" cy="9.247" r="9.247" transform="translate(49.685)" fill="#00578d"/>
          <circle id="Elipse_5-2" data-name="Elipse 5" cx="9.247" cy="9.247" r="9.247" transform="translate(99.02)" fill="#00578d"/>
          <circle id="Elipse_6-2" data-name="Elipse 6" cx="9.247" cy="9.247" r="9.247" transform="translate(142.058)" fill="#00578d"/>
          <circle id="Elipse_7-2" data-name="Elipse 7" cx="9.247" cy="9.247" r="9.247" transform="translate(192.093)" fill="#00578d"/>
          <circle id="Elipse_8-2" data-name="Elipse 8" cx="9.247" cy="9.247" r="9.247" transform="translate(240.728)" fill="#00578d"/>
        </g>
        <g id="Grupo_368-2" data-name="Grupo 368" transform="translate(0 37.789)">
          <circle id="Elipse_9-2" data-name="Elipse 9" cx="9.247" cy="9.247" r="9.247" fill="#00578d"/>
          <circle id="Elipse_10-2" data-name="Elipse 10" cx="9.247" cy="9.247" r="9.247" transform="translate(49.685)" fill="#00578d"/>
          <circle id="Elipse_11-2" data-name="Elipse 11" cx="9.247" cy="9.247" r="9.247" transform="translate(99.02)" fill="#00578d"/>
          <circle id="Elipse_12-2" data-name="Elipse 12" cx="9.247" cy="9.247" r="9.247" transform="translate(142.058)" fill="#00578d"/>
          <circle id="Elipse_13-2" data-name="Elipse 13" cx="9.247" cy="9.247" r="9.247" transform="translate(192.093)" fill="#00578d"/>
          <circle id="Elipse_14-2" data-name="Elipse 14" cx="9.247" cy="9.247" r="9.247" transform="translate(240.728)" fill="#00578d"/>
        </g>
        <g id="Grupo_369-2" data-name="Grupo 369" transform="translate(0 75.577)">
          <circle id="Elipse_15-2" data-name="Elipse 15" cx="9.247" cy="9.247" r="9.247" fill="#00578d"/>
          <circle id="Elipse_16-2" data-name="Elipse 16" cx="9.247" cy="9.247" r="9.247" transform="translate(49.685)" fill="#00578d"/>
          <circle id="Elipse_17-2" data-name="Elipse 17" cx="9.247" cy="9.247" r="9.247" transform="translate(99.02)" fill="#00578d"/>
          <circle id="Elipse_18-2" data-name="Elipse 18" cx="9.247" cy="9.247" r="9.247" transform="translate(142.058)" fill="#00578d"/>
          <circle id="Elipse_19-2" data-name="Elipse 19" cx="9.247" cy="9.247" r="9.247" transform="translate(192.093)" fill="#00578d"/>
          <circle id="Elipse_20-2" data-name="Elipse 20" cx="9.247" cy="9.247" r="9.247" transform="translate(240.728)" fill="#00578d"/>
        </g>
        <g id="Grupo_370-2" data-name="Grupo 370" transform="translate(0 113.366)">
          <circle id="Elipse_21-2" data-name="Elipse 21" cx="9.247" cy="9.247" r="9.247" fill="#00578d"/>
          <circle id="Elipse_22-2" data-name="Elipse 22" cx="9.247" cy="9.247" r="9.247" transform="translate(49.685)" fill="#00578d"/>
          <circle id="Elipse_23-2" data-name="Elipse 23" cx="9.247" cy="9.247" r="9.247" transform="translate(99.02)" fill="#00578d"/>
          <circle id="Elipse_24-2" data-name="Elipse 24" cx="9.247" cy="9.247" r="9.247" transform="translate(142.058)" fill="#00578d"/>
          <circle id="Elipse_25-2" data-name="Elipse 25" cx="9.247" cy="9.247" r="9.247" transform="translate(192.093)" fill="#00578d"/>
          <circle id="Elipse_26-2" data-name="Elipse 26" cx="9.247" cy="9.247" r="9.247" transform="translate(240.728)" fill="#00578d"/>
        </g>
        <g id="Grupo_371-2" data-name="Grupo 371" transform="translate(0 151.155)">
          <circle id="Elipse_27-2" data-name="Elipse 27" cx="9.247" cy="9.247" r="9.247" fill="#00578d"/>
          <circle id="Elipse_28-2" data-name="Elipse 28" cx="9.247" cy="9.247" r="9.247" transform="translate(49.685)" fill="#00578d"/>
          <circle id="Elipse_29-2" data-name="Elipse 29" cx="9.247" cy="9.247" r="9.247" transform="translate(99.02)" fill="#00578d"/>
          <circle id="Elipse_30-2" data-name="Elipse 30" cx="9.247" cy="9.247" r="9.247" transform="translate(142.058)" fill="#00578d"/>
          <circle id="Elipse_31-2" data-name="Elipse 31" cx="9.247" cy="9.247" r="9.247" transform="translate(192.093)" fill="#00578d"/>
          <circle id="Elipse_32-2" data-name="Elipse 32" cx="9.247" cy="9.247" r="9.247" transform="translate(240.728)" fill="#00578d"/>
        </g>
        <g id="Grupo_372-2" data-name="Grupo 372" transform="translate(0 188.944)">
          <circle id="Elipse_33-2" data-name="Elipse 33" cx="9.247" cy="9.247" r="9.247" fill="#00578d"/>
          <circle id="Elipse_34-2" data-name="Elipse 34" cx="9.247" cy="9.247" r="9.247" transform="translate(49.685)" fill="#00578d"/>
          <circle id="Elipse_35-2" data-name="Elipse 35" cx="9.247" cy="9.247" r="9.247" transform="translate(99.02)" fill="#00578d"/>
          <circle id="Elipse_36-2" data-name="Elipse 36" cx="9.247" cy="9.247" r="9.247" transform="translate(142.058)" fill="#00578d"/>
          <circle id="Elipse_37-2" data-name="Elipse 37" cx="9.247" cy="9.247" r="9.247" transform="translate(192.093)" fill="#00578d"/>
          <circle id="Elipse_38-2" data-name="Elipse 38" cx="9.247" cy="9.247" r="9.247" transform="translate(240.728)" fill="#00578d"/>
        </g>
        <g id="Grupo_373-2" data-name="Grupo 373" transform="translate(0 224.983)">
          <circle id="Elipse_39-2" data-name="Elipse 39" cx="9.247" cy="9.247" r="9.247" fill="#00578d"/>
          <circle id="Elipse_40-2" data-name="Elipse 40" cx="9.247" cy="9.247" r="9.247" transform="translate(49.685)" fill="#00578d"/>
          <circle id="Elipse_41-2" data-name="Elipse 41" cx="9.247" cy="9.247" r="9.247" transform="translate(99.02)" fill="#00578d"/>
          <circle id="Elipse_42-2" data-name="Elipse 42" cx="9.247" cy="9.247" r="9.247" transform="translate(142.058)" fill="#00578d"/>
          <circle id="Elipse_43-2" data-name="Elipse 43" cx="9.247" cy="9.247" r="9.247" transform="translate(192.093)" fill="#00578d"/>
          <circle id="Elipse_44-2" data-name="Elipse 44" cx="9.247" cy="9.247" r="9.247" transform="translate(240.728)" fill="#00578d"/>
        </g>
        <g id="Grupo_374-2" data-name="Grupo 374" transform="translate(0 263.471)">
          <circle id="Elipse_45-2" data-name="Elipse 45" cx="9.247" cy="9.247" r="9.247" fill="#00578d"/>
          <circle id="Elipse_46-2" data-name="Elipse 46" cx="9.247" cy="9.247" r="9.247" transform="translate(49.685)" fill="#00578d"/>
          <circle id="Elipse_47-2" data-name="Elipse 47" cx="9.247" cy="9.247" r="9.247" transform="translate(99.02)" fill="#00578d"/>
          <circle id="Elipse_48-2" data-name="Elipse 48" cx="9.247" cy="9.247" r="9.247" transform="translate(142.058)" fill="#00578d"/>
          <circle id="Elipse_49-2" data-name="Elipse 49" cx="9.247" cy="9.247" r="9.247" transform="translate(192.093)" fill="#00578d"/>
          <circle id="Elipse_50-2" data-name="Elipse 50" cx="9.247" cy="9.247" r="9.247" transform="translate(240.728)" fill="#00578d"/>
        </g>
      </g>
      <g id="Grupo_441" data-name="Grupo 441" transform="translate(536.813 363) rotate(90)" opacity="0.36" style="mix-blend-mode: multiply;isolation: isolate">
        <g id="Grupo_367-3" data-name="Grupo 367" transform="translate(0 0)">
          <circle id="Elipse_3-3" data-name="Elipse 3" cx="9.247" cy="9.247" r="9.247" fill="#00578d"/>
          <circle id="Elipse_4-3" data-name="Elipse 4" cx="9.247" cy="9.247" r="9.247" transform="translate(49.685)" fill="#00578d"/>
          <circle id="Elipse_5-3" data-name="Elipse 5" cx="9.247" cy="9.247" r="9.247" transform="translate(99.02)" fill="#00578d"/>
          <circle id="Elipse_6-3" data-name="Elipse 6" cx="9.247" cy="9.247" r="9.247" transform="translate(142.058)" fill="#00578d"/>
          <circle id="Elipse_7-3" data-name="Elipse 7" cx="9.247" cy="9.247" r="9.247" transform="translate(192.093)" fill="#00578d"/>
          <circle id="Elipse_8-3" data-name="Elipse 8" cx="9.247" cy="9.247" r="9.247" transform="translate(240.728)" fill="#00578d"/>
        </g>
        <g id="Grupo_368-3" data-name="Grupo 368" transform="translate(0 37.789)">
          <circle id="Elipse_9-3" data-name="Elipse 9" cx="9.247" cy="9.247" r="9.247" fill="#00578d"/>
          <circle id="Elipse_10-3" data-name="Elipse 10" cx="9.247" cy="9.247" r="9.247" transform="translate(49.685)" fill="#00578d"/>
          <circle id="Elipse_11-3" data-name="Elipse 11" cx="9.247" cy="9.247" r="9.247" transform="translate(99.02)" fill="#00578d"/>
          <circle id="Elipse_12-3" data-name="Elipse 12" cx="9.247" cy="9.247" r="9.247" transform="translate(142.058)" fill="#00578d"/>
          <circle id="Elipse_13-3" data-name="Elipse 13" cx="9.247" cy="9.247" r="9.247" transform="translate(192.093)" fill="#00578d"/>
          <circle id="Elipse_14-3" data-name="Elipse 14" cx="9.247" cy="9.247" r="9.247" transform="translate(240.728)" fill="#00578d"/>
        </g>
        <g id="Grupo_369-3" data-name="Grupo 369" transform="translate(0 75.577)">
          <circle id="Elipse_15-3" data-name="Elipse 15" cx="9.247" cy="9.247" r="9.247" fill="#00578d"/>
          <circle id="Elipse_16-3" data-name="Elipse 16" cx="9.247" cy="9.247" r="9.247" transform="translate(49.685)" fill="#00578d"/>
          <circle id="Elipse_17-3" data-name="Elipse 17" cx="9.247" cy="9.247" r="9.247" transform="translate(99.02)" fill="#00578d"/>
          <circle id="Elipse_18-3" data-name="Elipse 18" cx="9.247" cy="9.247" r="9.247" transform="translate(142.058)" fill="#00578d"/>
          <circle id="Elipse_19-3" data-name="Elipse 19" cx="9.247" cy="9.247" r="9.247" transform="translate(192.093)" fill="#00578d"/>
          <circle id="Elipse_20-3" data-name="Elipse 20" cx="9.247" cy="9.247" r="9.247" transform="translate(240.728)" fill="#00578d"/>
        </g>
        <g id="Grupo_370-3" data-name="Grupo 370" transform="translate(0 113.366)">
          <circle id="Elipse_21-3" data-name="Elipse 21" cx="9.247" cy="9.247" r="9.247" fill="#00578d"/>
          <circle id="Elipse_22-3" data-name="Elipse 22" cx="9.247" cy="9.247" r="9.247" transform="translate(49.685)" fill="#00578d"/>
          <circle id="Elipse_23-3" data-name="Elipse 23" cx="9.247" cy="9.247" r="9.247" transform="translate(99.02)" fill="#00578d"/>
          <circle id="Elipse_24-3" data-name="Elipse 24" cx="9.247" cy="9.247" r="9.247" transform="translate(142.058)" fill="#00578d"/>
          <circle id="Elipse_25-3" data-name="Elipse 25" cx="9.247" cy="9.247" r="9.247" transform="translate(192.093)" fill="#00578d"/>
          <circle id="Elipse_26-3" data-name="Elipse 26" cx="9.247" cy="9.247" r="9.247" transform="translate(240.728)" fill="#00578d"/>
        </g>
        <g id="Grupo_371-3" data-name="Grupo 371" transform="translate(0 151.155)">
          <circle id="Elipse_27-3" data-name="Elipse 27" cx="9.247" cy="9.247" r="9.247" fill="#00578d"/>
          <circle id="Elipse_28-3" data-name="Elipse 28" cx="9.247" cy="9.247" r="9.247" transform="translate(49.685)" fill="#00578d"/>
          <circle id="Elipse_29-3" data-name="Elipse 29" cx="9.247" cy="9.247" r="9.247" transform="translate(99.02)" fill="#00578d"/>
          <circle id="Elipse_30-3" data-name="Elipse 30" cx="9.247" cy="9.247" r="9.247" transform="translate(142.058)" fill="#00578d"/>
          <circle id="Elipse_31-3" data-name="Elipse 31" cx="9.247" cy="9.247" r="9.247" transform="translate(192.093)" fill="#00578d"/>
          <circle id="Elipse_32-3" data-name="Elipse 32" cx="9.247" cy="9.247" r="9.247" transform="translate(240.728)" fill="#00578d"/>
        </g>
        <g id="Grupo_372-3" data-name="Grupo 372" transform="translate(0 188.944)">
          <circle id="Elipse_33-3" data-name="Elipse 33" cx="9.247" cy="9.247" r="9.247" fill="#00578d"/>
          <circle id="Elipse_34-3" data-name="Elipse 34" cx="9.247" cy="9.247" r="9.247" transform="translate(49.685)" fill="#00578d"/>
          <circle id="Elipse_35-3" data-name="Elipse 35" cx="9.247" cy="9.247" r="9.247" transform="translate(99.02)" fill="#00578d"/>
          <circle id="Elipse_36-3" data-name="Elipse 36" cx="9.247" cy="9.247" r="9.247" transform="translate(142.058)" fill="#00578d"/>
          <circle id="Elipse_37-3" data-name="Elipse 37" cx="9.247" cy="9.247" r="9.247" transform="translate(192.093)" fill="#00578d"/>
          <circle id="Elipse_38-3" data-name="Elipse 38" cx="9.247" cy="9.247" r="9.247" transform="translate(240.728)" fill="#00578d"/>
        </g>
        <g id="Grupo_373-3" data-name="Grupo 373" transform="translate(0 224.983)">
          <circle id="Elipse_39-3" data-name="Elipse 39" cx="9.247" cy="9.247" r="9.247" fill="#00578d"/>
          <circle id="Elipse_40-3" data-name="Elipse 40" cx="9.247" cy="9.247" r="9.247" transform="translate(49.685)" fill="#00578d"/>
          <circle id="Elipse_41-3" data-name="Elipse 41" cx="9.247" cy="9.247" r="9.247" transform="translate(99.02)" fill="#00578d"/>
          <circle id="Elipse_42-3" data-name="Elipse 42" cx="9.247" cy="9.247" r="9.247" transform="translate(142.058)" fill="#00578d"/>
          <circle id="Elipse_43-3" data-name="Elipse 43" cx="9.247" cy="9.247" r="9.247" transform="translate(192.093)" fill="#00578d"/>
          <circle id="Elipse_44-3" data-name="Elipse 44" cx="9.247" cy="9.247" r="9.247" transform="translate(240.728)" fill="#00578d"/>
        </g>
        <g id="Grupo_374-3" data-name="Grupo 374" transform="translate(0 263.471)">
          <circle id="Elipse_45-3" data-name="Elipse 45" cx="9.247" cy="9.247" r="9.247" fill="#00578d"/>
          <circle id="Elipse_46-3" data-name="Elipse 46" cx="9.247" cy="9.247" r="9.247" transform="translate(49.685)" fill="#00578d"/>
          <circle id="Elipse_47-3" data-name="Elipse 47" cx="9.247" cy="9.247" r="9.247" transform="translate(99.02)" fill="#00578d"/>
          <circle id="Elipse_48-3" data-name="Elipse 48" cx="9.247" cy="9.247" r="9.247" transform="translate(142.058)" fill="#00578d"/>
          <circle id="Elipse_49-3" data-name="Elipse 49" cx="9.247" cy="9.247" r="9.247" transform="translate(192.093)" fill="#00578d"/>
          <circle id="Elipse_50-3" data-name="Elipse 50" cx="9.247" cy="9.247" r="9.247" transform="translate(240.728)" fill="#00578d"/>
        </g>
      </g>
    </g>
  </g>
</svg>
