<svg xmlns="http://www.w3.org/2000/svg" id="Grupo_454" width="266.399" height="121.542" data-name="Grupo 454" viewBox="0 0 266.399 121.542"><path id="Caminho_310" fill="#41bac1" d="M255.653,146.886H215.238c1.49,6.653,7.15,10.725,15.293,10.725a18.111,18.111,0,0,0,13.406-5.163l8.242,8.937c-4.965,5.661-12.412,8.639-22.044,8.639-18.471,0-30.486-11.617-30.486-27.505,0-15.988,12.214-27.507,28.5-27.507,15.69,0,27.8,10.526,27.8,27.705C255.952,143.906,255.753,145.6,255.653,146.886ZM215.04,137.85h26.314a12.694,12.694,0,0,0-13.107-11.122C221.2,126.728,216.132,131,215.04,137.85Z" data-name="Caminho 310" transform="translate(-199.648 -107.442)"/><path id="Caminho_311" fill="#41bac1" d="M329.23,145.181H279.4c1.837,8.2,8.816,13.224,18.856,13.224,6.979,0,12-2.083,16.529-6.368l10.163,11.02c-6.122,6.979-15.305,10.652-27.18,10.652-22.775,0-37.589-14.325-37.589-33.914,0-19.713,15.06-33.916,35.139-33.916,19.346,0,34.283,12.977,34.283,34.16C329.6,141.508,329.352,143.59,329.23,145.181ZM279.152,134.04H311.6c-1.346-8.326-7.591-13.714-16.161-13.714C286.745,120.326,280.5,125.592,279.152,134.04Z" data-name="Caminho 311" transform="translate(-210.01 -105.879)"/><g id="Grupo_386" data-name="Grupo 386" transform="translate(66.814 7.209)"><path id="Caminho_312" fill="#fff" d="M366.671,190.081a18.257,18.257,0,0,1,1.56-7.384H355.792l6.344-25.722H342.19L335.846,182.7H310.3l63-68.121H348.7L283.273,185.33a11.247,11.247,0,0,0,8.379,18.883l38.933-.421-6.658,25.118h21.129l6.485-25.108h20.611l.128-.539A18.269,18.269,0,0,1,366.671,190.081Z" data-name="Caminho 312" transform="translate(-280.264 -114.577)"/></g><g id="Grupo_387" data-name="Grupo 387" transform="translate(71.178 7.209)"><path id="Caminho_313" fill="#572180" d="M371.937,190.081A18.257,18.257,0,0,1,373.5,182.7H361.057l6.344-25.722H347.455L341.111,182.7H315.569l63-68.121h-24.6L288.538,185.33a11.247,11.247,0,0,0,8.379,18.883l38.933-.421-6.658,25.118h21.129l6.485-25.108h20.611l.128-.539A18.269,18.269,0,0,1,371.937,190.081Z" data-name="Caminho 313" transform="translate(-285.529 -114.577)"/></g><g id="Grupo_388" data-name="Grupo 388" transform="translate(153.784 34.679)"><path id="Caminho_314" fill="#00758d" d="M451.892,173.121l-11.115,55.888H425.4l1.038-5.506a24.89,24.89,0,0,1-17.14,6.336c-12.985,0-24.1-9.142-24.1-25.036,0-18.8,13.609-32.515,30.854-32.515,8.1,0,14.544,2.6,18.179,8.415l1.455-7.583ZM430.7,198.052c0-7.583-4.674-12.361-12.777-12.361-9.558,0-16.414,7.479-16.414,18.388,0,7.583,4.675,12.362,12.777,12.362C423.843,216.44,430.7,208.961,430.7,198.052Z" data-name="Caminho 314" transform="translate(-385.199 -151.928)"/><path id="Caminho_315" fill="#00758d" d="M473.151,147.722h16.206L473.982,224.8h-16.2Z" data-name="Caminho 315" transform="translate(-397.624 -147.722)"/><path id="Caminho_316" fill="#00758d" d="M498.347,147.722h16.206L499.177,224.8H482.972Z" data-name="Caminho 316" transform="translate(-401.938 -147.722)"/></g></svg>