<svg xmlns="http://www.w3.org/2000/svg" width="692.176" height="221.58" viewBox="0 0 692.176 221.58">
  <g id="Grupo_436" data-name="Grupo 436" transform="translate(0 0)">
    <g id="Grupo_359" data-name="Grupo 359" transform="translate(445.514 49.598)">
      <g id="Grupo_357" data-name="Grupo 357" transform="translate(112.373 44.721)">
        <path id="Caminho_243" data-name="Caminho 243" d="M595.653,185.7,582.4,252.344H564.064l1.238-6.565a29.681,29.681,0,0,1-20.439,7.557c-15.484,0-28.739-10.9-28.739-29.856,0-22.419,16.227-38.773,36.791-38.773,9.663,0,17.343,3.1,21.679,10.036l1.734-9.043Zm-25.272,29.73c0-9.043-5.574-14.741-15.236-14.741-11.4,0-19.573,8.919-19.573,21.927,0,9.041,5.575,14.74,15.237,14.74C562.206,237.355,570.381,228.436,570.381,215.429Z" transform="translate(-516.124 -160.427)" fill="#572180"/>
        <path id="Caminho_244" data-name="Caminho 244" d="M583.01,168.272h19.325L584,260.189H564.677Z" transform="translate(-492.947 -168.272)" fill="#572180"/>
        <path id="Caminho_245" data-name="Caminho 245" d="M599.864,168.272H619.19l-18.334,91.917H581.532Z" transform="translate(-484.901 -168.272)" fill="#572180"/>
      </g>
      <g id="Grupo_358" data-name="Grupo 358" transform="translate(0)">
        <path id="Caminho_246" data-name="Caminho 246" d="M558.294,241.316a24.966,24.966,0,0,1,2.135-10.1H543.407l8.679-35.2H524.795l-8.681,35.2h-34.95L567.37,138H533.7l-89.527,96.814a15.39,15.39,0,0,0,11.467,25.838l53.272-.576-9.109,34.369h28.912l8.873-34.356h28.2l.176-.737A25,25,0,0,1,558.294,241.316Z" transform="translate(-440.061 -138.001)" fill="#572180"/>
      </g>
    </g>
    <path id="Caminho_247" data-name="Caminho 247" d="M202.4,202.252H156.289c1.7,7.592,8.158,12.238,17.449,12.238,6.459,0,11.1-1.928,15.3-5.892l9.4,10.2c-5.666,6.459-14.163,9.857-25.155,9.857-21.075,0-34.784-13.256-34.784-31.385,0-18.243,13.937-31.385,32.52-31.385,17.9,0,31.725,12.009,31.725,31.611C202.745,198.852,202.518,200.78,202.4,202.252Zm-46.342-10.311h30.026c-1.247-7.7-7.025-12.691-14.957-12.691C163.088,179.251,157.308,184.123,156.063,191.941Z" transform="translate(-138.5 -75.094)" fill="#00758d"/>
    <path id="Caminho_248" data-name="Caminho 248" d="M224.922,227.454l-13.37-18.7-13.824,18.7H178.466l23.455-30.705-22.661-30.253h19.829l12.917,17.789,13.256-17.789H244.07l-22.661,29.8,23.568,31.159Z" transform="translate(-119.422 -74.801)" fill="#00758d"/>
    <path id="Caminho_249" data-name="Caminho 249" d="M275.322,196.158c0,14.678-10.161,24.057-23.276,24.057-5.819,0-10.6-1.823-14.07-5.645v21.8H224.427V172.795h12.94v5.383c3.388-4.082,8.425-6.079,14.679-6.079C265.161,172.1,275.322,181.479,275.322,196.158Zm-13.723,0c0-8.078-5.124-12.942-11.9-12.942s-11.9,4.863-11.9,12.942,5.123,12.94,11.9,12.94S261.6,204.235,261.6,196.158Z" transform="translate(-97.482 -72.126)" fill="#00758d"/>
    <path id="Caminho_250" data-name="Caminho 250" d="M309.272,199.978H273.925c1.3,5.819,6.252,9.381,13.374,9.381a15.842,15.842,0,0,0,11.724-4.516l7.21,7.817c-4.344,4.949-10.857,7.555-19.281,7.555-16.155,0-26.663-10.161-26.663-24.057,0-13.983,10.683-24.059,24.926-24.059,13.723,0,24.319,9.207,24.319,24.232C309.534,197.372,309.359,198.85,309.272,199.978Zm-35.522-7.9h23.016a11.1,11.1,0,0,0-11.464-9.728C279.136,182.347,274.707,186.082,273.751,192.076Z" transform="translate(-80.363 -72.126)" fill="#00758d"/>
    <path id="Caminho_251" data-name="Caminho 251" d="M376.781,199.978H341.432c1.3,5.819,6.254,9.381,13.375,9.381a15.847,15.847,0,0,0,11.726-4.516l7.208,7.817c-4.342,4.949-10.856,7.555-19.281,7.555-16.155,0-26.663-10.161-26.663-24.057,0-13.983,10.683-24.059,24.926-24.059,13.723,0,24.319,9.207,24.319,24.232C377.041,197.372,376.868,198.85,376.781,199.978Zm-35.523-7.9h23.016a11.1,11.1,0,0,0-11.464-9.728C346.643,182.347,342.214,186.082,341.258,192.076Z" transform="translate(-48.138 -72.126)" fill="#00758d"/>
    <path id="Caminho_252" data-name="Caminho 252" d="M410.382,192.77v26.751H396.833V194.855c0-7.557-3.475-11.03-9.467-11.03-6.513,0-11.2,3.995-11.2,12.593v23.1H362.613V172.795h12.942v5.471c3.648-3.995,9.118-6.166,15.459-6.166C402.044,172.1,410.382,178.527,410.382,192.77Z" transform="translate(-31.517 -72.126)" fill="#00758d"/>
    <path id="Caminho_253" data-name="Caminho 253" d="M396.431,196.158c0-14.07,10.857-24.059,26.056-24.059,9.814,0,17.543,4.256,20.931,11.9l-10.509,5.647c-2.52-4.431-6.254-6.428-10.51-6.428-6.861,0-12.246,4.778-12.246,12.942s5.385,12.94,12.246,12.94c4.256,0,7.99-1.91,10.51-6.427l10.509,5.732c-3.388,7.468-11.117,11.812-20.931,11.812C407.288,220.215,396.431,210.227,396.431,196.158Z" transform="translate(-15.374 -72.126)" fill="#00758d"/>
    <g id="Grupo_360" data-name="Grupo 360" transform="translate(231.257 100.43)">
      <path id="Caminho_254" data-name="Caminho 254" d="M307.974,178.814v-6.166h-12.94v46.726h13.549V197.312c0-8.945,4.949-13.027,12.419-13.027,1.043,0,1.912.087,3.04.174v-9.275a25.607,25.607,0,0,1-5.165-2.776A16.793,16.793,0,0,0,307.974,178.814Z" transform="translate(-295.034 -172.408)" fill="#00758d"/>
      <path id="Caminho_255" data-name="Caminho 255" d="M317.141,175.144v42.923H330.69V176.384a35.869,35.869,0,0,1-4.221.251A35.12,35.12,0,0,1,317.141,175.144Z" transform="translate(-284.481 -171.102)" fill="#00758d"/>
    </g>
    <path id="Caminho_256" data-name="Caminho 256" d="M189.441,153.4H152.68c1.356,6.051,6.5,9.755,13.909,9.755a16.478,16.478,0,0,0,12.194-4.7l7.5,8.128c-4.516,5.149-11.29,7.858-20.051,7.858-16.8,0-27.729-10.568-27.729-25.018,0-14.542,11.11-25.019,25.922-25.019,14.271,0,25.29,9.573,25.29,25.2C189.711,150.693,189.531,152.23,189.441,153.4ZM152.5,145.184h23.935a11.547,11.547,0,0,0-11.922-10.117C158.1,135.067,153.494,138.953,152.5,145.184Z" transform="translate(-138.5 -94.89)" fill="#41bac1"/>
    <path id="Caminho_257" data-name="Caminho 257" d="M256.1,145.907v27.819h-14.09V148.074c0-7.858-3.522-11.47-9.213-11.47-6.322,0-10.748,4.064-10.748,12.735v24.387h-14.09V148.074c0-7.858-3.342-11.47-9.213-11.47-6.233,0-10.659,4.064-10.659,12.735v24.387H174V125.133h13.457v5.6c3.614-4.154,9.033-6.322,15.266-6.322,6.774,0,12.555,2.619,15.987,7.948,3.884-4.968,10.206-7.948,17.521-7.948C247.79,124.411,256.1,131.095,256.1,145.907Z" transform="translate(-121.555 -94.89)" fill="#41bac1"/>
    <path id="Caminho_258" data-name="Caminho 258" d="M285.331,149.43c0,15.263-10.568,25.018-24.205,25.018-6.051,0-11.02-1.9-14.632-5.871v22.672H232.4V125.133h13.459v5.6c3.522-4.246,8.761-6.322,15.264-6.322C274.763,124.411,285.331,134.165,285.331,149.43Zm-14.27,0c0-8.4-5.329-13.459-12.374-13.459s-12.374,5.057-12.374,13.459,5.329,13.456,12.374,13.456S271.061,157.829,271.061,149.43Z" transform="translate(-93.674 -94.89)" fill="#41bac1"/>
    <path id="Caminho_259" data-name="Caminho 259" d="M270.062,112.428h14.09v67.018h-14.09Z" transform="translate(-75.697 -100.611)" fill="#41bac1"/>
    <path id="Caminho_260" data-name="Caminho 260" d="M281.432,149.43c0-14.633,11.29-25.019,26.736-25.019s26.644,10.386,26.644,25.019-11.2,25.018-26.644,25.018S281.432,164.06,281.432,149.43Zm39.109,0c0-8.4-5.327-13.459-12.373-13.459S295.7,141.028,295.7,149.43s5.419,13.456,12.464,13.456S320.541,157.829,320.541,149.43Z" transform="translate(-70.27 -94.89)" fill="#41bac1"/>
    <path id="Caminho_261" data-name="Caminho 261" d="M434.51,157.484H377.648c2.1,9.361,10.059,15.09,21.515,15.09,7.964,0,13.692-2.376,18.861-7.264l11.6,12.574c-6.986,7.963-17.464,12.154-31.017,12.154-25.987,0-42.892-16.345-42.892-38.7,0-22.494,17.186-38.7,40.1-38.7,22.075,0,39.12,14.809,39.12,38.979C434.931,153.293,434.65,155.668,434.51,157.484Zm-57.141-12.713h37.024c-1.538-9.5-8.663-15.65-18.443-15.65C386.03,129.121,378.905,135.131,377.369,144.771Z" transform="translate(-34.812 -100.511)" fill="#41bac1"/>
    <path id="Caminho_262" data-name="Caminho 262" d="M507.646,159.727H437.532c2.585,11.541,12.405,18.606,26.53,18.606,9.818,0,16.883-2.93,23.257-8.959l14.3,15.5c-8.613,9.819-21.534,14.986-38.243,14.986-32.042,0-52.887-20.156-52.887-47.717,0-27.736,21.188-47.719,49.44-47.719,27.219,0,48.236,18.26,48.236,48.061C508.163,154.559,507.817,157.488,507.646,159.727ZM437.187,144.05h45.652c-1.894-11.714-10.681-19.294-22.738-19.294C447.869,124.756,439.083,132.165,437.187,144.05Z" transform="translate(-8.664 -104.429)" fill="#41bac1"/>
    <path id="Caminho_263" data-name="Caminho 263" d="M441.657,217.714l8.356-8.939a11.511,11.511,0,0,1-8.718-8.8h16.939l15.438-16.515c-4.145-7.226-11.907-11.364-21.086-11.364-14.245,0-24.927,10.076-24.927,24.059A22.774,22.774,0,0,0,441.657,217.714Zm11.015-35.367a11.1,11.1,0,0,1,11.466,9.728H441.122C442.077,186.082,446.506,182.347,452.672,182.347Z" transform="translate(-0.467 -72.126)" fill="#00758d"/>
    <path id="Caminho_264" data-name="Caminho 264" d="M381.766,118.573,354.6,182.4c-5.812,14.531-14.084,18.891-24.926,18.891-6.147,0-15.876-2.941-19.26-7.427l6.372-12.407c3.56,3.882,8.332,6.242,12.33,5.75,4.77-.588,7.489-2.124,9.836-7.489l.223-.558-26.043-60.584h18l16.877,40.8L365,118.573Z" transform="translate(-56.433 -97.677)" fill="#41bac1"/>
    <ellipse id="Elipse_2" data-name="Elipse 2" cx="7.374" cy="7.374" rx="7.374" ry="7.374" transform="translate(263.317 72.026)" fill="#00758d"/>
    <g id="Grupo_363" data-name="Grupo 363" transform="translate(126.946 171.93)">
      <g id="Grupo_361" data-name="Grupo 361" transform="translate(0 16.309)">
        <path id="Caminho_265" data-name="Caminho 265" d="M257.232,254.1a10.935,10.935,0,1,1,10.522-10.906A10.751,10.751,0,0,1,257.232,254.1Zm0-16.8a5.721,5.721,0,0,0-5.512,5.9,5.5,5.5,0,1,0,10.981,0A5.7,5.7,0,0,0,257.232,237.3Z" transform="translate(-213.811 -231.655)" fill="#572180"/>
        <path id="Caminho_266" data-name="Caminho 266" d="M275.667,232.522h-3.71a.672.672,0,0,0-.672.672v12.792c0,1.845-1.146,2.9-3.141,2.98-2-.081-3.142-1.135-3.142-2.98V233.194a.671.671,0,0,0-.671-.672H260.62a.671.671,0,0,0-.671.672v13.048c0,4.567,3.227,7.783,7.888,7.947v.009c.081,0,.158.007.239.007h.135c.081,0,.159-.007.239-.007v-.009c4.661-.164,7.888-3.38,7.888-7.947V233.194A.671.671,0,0,0,275.667,232.522Z" transform="translate(-207.471 -231.522)" fill="#572180"/>
        <path id="Caminho_267" data-name="Caminho 267" d="M262.182,234.509a6.377,6.377,0,0,0-4.909-2.031,7.02,7.02,0,0,0-5.283,1.978,6.7,6.7,0,0,0-5.794-2.609,6.1,6.1,0,0,0-5.264,2.627,9.1,9.1,0,0,0-6.026-2.039,10.56,10.56,0,0,0-10.478,10.857,10.916,10.916,0,0,0,3.187,7.851,10.617,10.617,0,0,0,7.461,3.216,9.378,9.378,0,0,0,5.088-1.5v1.485c0,3.145-2.006,5.342-4.874,5.342a6.393,6.393,0,0,1-4.6-1.935.666.666,0,0,0-.476-.2.675.675,0,0,0-.43.155l-2.857,2.389a.671.671,0,0,0-.1.929,10.923,10.923,0,0,0,8.459,3.754c6.475,0,9.968-5.378,9.968-10.438V236.521a1.232,1.232,0,0,1,2.219.08v16.846a.671.671,0,0,0,.671.672h3.667a.673.673,0,0,0,.672-.672V241.225c.6-1.9,2.1-4.077,4.4-4.077a3.94,3.94,0,0,1,2.294.779.669.669,0,0,0,.943-.075l2.09-2.43A.669.669,0,0,0,262.182,234.509Zm-21.976,11.723c-.312,1.875-2.839,3.176-4.942,3.176l-.1,0c-3.451,0-5.769-3.159-5.769-6.134a6.018,6.018,0,0,1,1.714-4.357,5.657,5.657,0,0,1,4.1-1.768c1.929,0,5,1.6,5,3.507Z" transform="translate(-224.428 -231.845)" fill="#572180" fill-rule="evenodd"/>
      </g>
      <g id="Grupo_362" data-name="Grupo 362" transform="translate(87.605 0)">
        <path id="Caminho_268" data-name="Caminho 268" d="M283.726,255.7V233.412h4.513v1.228a6.438,6.438,0,0,1,1.986-1.175,6.8,6.8,0,0,1,2.321-.378,6.575,6.575,0,0,1,5.11,2.17,9.071,9.071,0,0,1,0,11.28,6.594,6.594,0,0,1-5.11,2.155,6.949,6.949,0,0,1-2.257-.35,5.67,5.67,0,0,1-1.879-1.073V255.7Zm4.683-18.065v6.406a4.661,4.661,0,0,0,1.253.694,3.94,3.94,0,0,0,1.321.238,3.486,3.486,0,0,0,2.727-1.1,4.323,4.323,0,0,0,1-3,4.465,4.465,0,0,0-.985-3.02,3.253,3.253,0,0,0-2.6-1.145,4.21,4.21,0,0,0-1.374.233A4.923,4.923,0,0,0,288.409,237.636Z" transform="translate(-283.726 -214.943)" fill="#572180" fill-rule="evenodd"/>
        <path id="Caminho_269" data-name="Caminho 269" d="M305.1,246.389a7.418,7.418,0,0,1-2.315,1.655,6.982,6.982,0,0,1-2.757.51,4.79,4.79,0,0,1-3.782-1.491,6.247,6.247,0,0,1-1.325-4.286v-9.47h4.719v8.824a4.153,4.153,0,0,0,.51,2.33,1.806,1.806,0,0,0,1.6.733,3.168,3.168,0,0,0,1.829-.591,5.172,5.172,0,0,0,1.52-1.763v-9.533h4.717v14.96h-4.717l0-1.878Z" transform="translate(-278.384 -214.838)" fill="#572180" fill-rule="evenodd"/>
        <rect id="Retângulo_111" data-name="Retângulo 111" width="4.718" height="22.065" transform="translate(32.06 11.358)" fill="#572180"/>
        <path id="Caminho_270" data-name="Caminho 270" d="M308.972,247.556v-3.335a19.526,19.526,0,0,0,2.627,1,7.392,7.392,0,0,0,2.028.355,3.869,3.869,0,0,0,1.684-.287.908.908,0,0,0,.573-.85,1.1,1.1,0,0,0-.427-.844,8.259,8.259,0,0,0-1.943-1c-.1-.044-.276-.106-.5-.2q-4.3-1.777-4.3-4.572A4.186,4.186,0,0,1,310.3,234.4a6.458,6.458,0,0,1,4.2-1.291,11.41,11.41,0,0,1,2.655.3,10.883,10.883,0,0,1,2.436.9v3.3a15.531,15.531,0,0,0-2.65-1.149,7.132,7.132,0,0,0-2.135-.365,2.421,2.421,0,0,0-1.317.3.957.957,0,0,0-.456.85c0,.485.849,1.077,2.559,1.782.694.276,1.242.5,1.64.684a5.706,5.706,0,0,1,2.385,1.7,3.927,3.927,0,0,1,.752,2.461,4.252,4.252,0,0,1-1.6,3.562,7.251,7.251,0,0,1-4.553,1.248,13.483,13.483,0,0,1-2.781-.278,10.145,10.145,0,0,1-2.472-.844" transform="translate(-271.797 -214.932)" fill="#572180" fill-rule="evenodd"/>
        <path id="Caminho_271" data-name="Caminho 271" d="M321.574,239.405l5.815-.013a3.751,3.751,0,0,0-.878-2.268,2.514,2.514,0,0,0-1.932-.82,2.719,2.719,0,0,0-2.019.82,3.907,3.907,0,0,0-.986,2.281m9.712,8.14c-3.566,1.539-8.576,2.572-12.4-.981a7.612,7.612,0,0,1-2.188-5.853,7.364,7.364,0,0,1,2.141-5.528,7.879,7.879,0,0,1,5.713-2.073,6.063,6.063,0,0,1,5.047,2.247,8.874,8.874,0,0,1,2.034,6.195v.155H321.546v.062a3.485,3.485,0,0,0,1.218,2.811c2,1.708,6.641.941,8.529-.359l-.006,3.324Z" transform="translate(-267.985 -214.932)" fill="#572180" fill-rule="evenodd"/>
        <path id="Caminho_272" data-name="Caminho 272" d="M327.163,247.556v-3.335a19.508,19.508,0,0,0,2.625,1,7.408,7.408,0,0,0,2.03.355,3.868,3.868,0,0,0,1.684-.287.91.91,0,0,0,.573-.85,1.093,1.093,0,0,0-.429-.844,8.207,8.207,0,0,0-1.941-1c-.1-.044-.276-.106-.5-.2q-4.3-1.777-4.3-4.572a4.186,4.186,0,0,1,1.587-3.417,6.456,6.456,0,0,1,4.2-1.291,11.421,11.421,0,0,1,2.656.3,10.883,10.883,0,0,1,2.436.9v3.3a15.536,15.536,0,0,0-2.65-1.149,7.134,7.134,0,0,0-2.136-.365,2.415,2.415,0,0,0-1.315.3.957.957,0,0,0-.456.85c0,.485.849,1.077,2.559,1.782.694.276,1.242.5,1.64.684a5.7,5.7,0,0,1,2.383,1.7,3.966,3.966,0,0,1,.748,2.466,4.251,4.251,0,0,1-1.6,3.563,7.247,7.247,0,0,1-4.552,1.247,13.6,13.6,0,0,1-2.782-.276,10.439,10.439,0,0,1-2.466-.849" transform="translate(-263.114 -214.932)" fill="#572180" fill-rule="evenodd"/>
        <path id="Caminho_273" data-name="Caminho 273" d="M334.927,233.634a2.51,2.51,0,0,1,2.455-4.379,16.491,16.491,0,0,1,6.282,22.449,2.51,2.51,0,0,1-4.379-2.455,11.458,11.458,0,0,0-4.358-15.614" transform="translate(-259.897 -216.926)" fill="#572180"/>
        <path id="Caminho_274" data-name="Caminho 274" d="M339.007,239.494a11.431,11.431,0,0,1-1.442,4.717,2.515,2.515,0,0,0,.1,2.621,13,13,0,0,0,2.393-4.5A2.519,2.519,0,0,0,339.007,239.494Z" transform="translate(-258.178 -211.885)" fill="#572180"/>
        <path id="Caminho_275" data-name="Caminho 275" d="M337.123,229.255a2.514,2.514,0,0,0-2.946.359,14.826,14.826,0,0,1,6.639,4.855,14.74,14.74,0,0,1,3.088,7.746,2.5,2.5,0,0,0,1.61,2.117,16.514,16.514,0,0,0-8.391-15.076Z" transform="translate(-259.643 -216.926)" fill="#572180"/>
        <path id="Caminho_276" data-name="Caminho 276" d="M348.129,237.316a2.508,2.508,0,1,1,4.912-1.019A23.383,23.383,0,0,1,334.9,263.963a2.508,2.508,0,0,1-1.02-4.912,18.386,18.386,0,0,0,14.246-21.735" transform="translate(-260.737 -214.366)" fill="#572180"/>
        <path id="Caminho_277" data-name="Caminho 277" d="M344.752,239.038a19.664,19.664,0,0,0-.917-4.394,2.515,2.515,0,0,0-.941,2.51,18.715,18.715,0,0,1,.378,4.4A2.509,2.509,0,0,0,344.752,239.038Z" transform="translate(-255.506 -214.2)" fill="#572180"/>
        <path id="Caminho_278" data-name="Caminho 278" d="M344.759,234.313a21.779,21.779,0,0,1,.928,9.143,2.5,2.5,0,0,0,1.2,2.423,23.4,23.4,0,0,0,0-9.6A2.509,2.509,0,0,0,344.759,234.313Z" transform="translate(-254.591 -214.358)" fill="#572180"/>
        <path id="Caminho_279" data-name="Caminho 279" d="M325.813,233.54a2.511,2.511,0,1,1-3.082-3.965,19.935,19.935,0,0,1,32.088,13.892,2.5,2.5,0,1,1-4.985.452,14.939,14.939,0,0,0-24.022-10.378" transform="translate(-265.57 -218.624)" fill="#572180" stroke="#fff" stroke-miterlimit="10" stroke-width="0.5"/>
        <path id="Caminho_280" data-name="Caminho 280" d="M333.049,225.806a2.507,2.507,0,1,1,.548-4.985,26.851,26.851,0,0,1,23.735,29.637,2.507,2.507,0,0,1-4.985-.548,21.825,21.825,0,0,0-19.3-24.1" transform="translate(-261.248 -220.806)" fill="#572180" stroke="#fff" stroke-miterlimit="10" stroke-width="0.5"/>
        <path id="Caminho_281" data-name="Caminho 281" d="M340.16,241.019a2.509,2.509,0,0,1,4.81,1.431,13.041,13.041,0,0,1-16.227,8.742,2.509,2.509,0,0,1,1.432-4.81,8.016,8.016,0,0,0,9.986-5.363" transform="translate(-263.092 -212.012)" fill="#572180" stroke="#fff" stroke-miterlimit="10" stroke-width="0.5"/>
      </g>
      <g id="Layer_2" data-name="Layer 2" transform="translate(196.091 8.062)">
        <g id="horizontal-white">
          <path id="Caminho_282" data-name="Caminho 282" d="M375.327,262.594a18.166,18.166,0,1,1,18.161-18.168v.006A18.181,18.181,0,0,1,375.327,262.594Zm0-33.931a15.769,15.769,0,1,0,15.768,15.768A15.769,15.769,0,0,0,375.327,228.664Z" transform="translate(-357.158 -226.263)" fill="#572180"/>
          <path id="Caminho_283" data-name="Caminho 283" d="M382.249,240.74l.742-1.807a.322.322,0,0,0-.205-.408.306.306,0,0,0-.075-.015h-2.751l2.317-5.484a.306.306,0,0,0-.16-.4.31.31,0,0,0-.121-.024h-2.532a.3.3,0,0,0-.285.191l-6.135,15.3a.323.323,0,0,1-.437.131.328.328,0,0,1-.13-.131l-6.129-15.323a.306.306,0,0,0-.284-.191h-2.542a.323.323,0,0,0-.3.347.316.316,0,0,0,.015.075l2.333,5.511h-2.755a.321.321,0,0,0-.3.344.352.352,0,0,0,.015.078l.755,1.807a.3.3,0,0,0,.281.186h3.006l1.03,2.446h-2.733a.322.322,0,0,0-.282.358.316.316,0,0,0,.015.065l.755,1.805a.3.3,0,0,0,.281.188h3l2.532,6.01a.321.321,0,0,0,.281.188h2.641a.322.322,0,0,0,.281-.188l2.532-6.01h3.014a.32.32,0,0,0,.284-.188l.752-1.805a.324.324,0,0,0-.205-.408.272.272,0,0,0-.075-.015H377.91l1.03-2.446h3.026A.322.322,0,0,0,382.249,240.74Z" transform="translate(-354.6 -223.249)" fill="#572180"/>
          <path id="Caminho_284" data-name="Caminho 284" d="M405.83,241.856a.184.184,0,0,0-.1.133,5.09,5.09,0,0,1-4.361,3.958,4.96,4.96,0,0,1-4.236-1.51.194.194,0,0,1-.016-.273.185.185,0,0,1,.068-.049l10.368-5.162a.291.291,0,0,0,.142-.278,7.191,7.191,0,0,0-8.114-4.936,7.258,7.258,0,0,0,.581,14.394c.214.019.422.03.646.03a7.619,7.619,0,0,0,4.748-1.768,7.133,7.133,0,0,0,2.54-5.342.2.2,0,0,0-.192-.2.213.213,0,0,0-.092.021Zm-6.991-5.561a5.15,5.15,0,0,1,1.978-.414,4.964,4.964,0,0,1,3.568,1.507.225.225,0,0,1-.034.318.185.185,0,0,1-.037.024l-8.22,4.049a.2.2,0,0,1-.266-.1.208.208,0,0,1-.018-.059A4.976,4.976,0,0,1,398.839,236.3Z" transform="translate(-339.802 -222.742)" fill="#572180"/>
          <path id="Caminho_285" data-name="Caminho 285" d="M416.379,241.856a.194.194,0,0,0-.106.133,5.084,5.084,0,0,1-4.345,3.958,4.966,4.966,0,0,1-4.239-1.51.2.2,0,0,1-.008-.278.184.184,0,0,1,.062-.044l10.365-5.162a.3.3,0,0,0,.145-.278,7.193,7.193,0,0,0-8.114-4.936,7.258,7.258,0,0,0,.581,14.394c.216.019.426.03.629.03a7.619,7.619,0,0,0,4.748-1.768,7.133,7.133,0,0,0,2.54-5.342.194.194,0,0,0-.281-.18ZM409.4,236.3a5.16,5.16,0,0,1,1.981-.414,4.958,4.958,0,0,1,3.565,1.507.227.227,0,0,1-.034.318.188.188,0,0,1-.037.024l-8.217,4.049a.2.2,0,0,1-.264-.089.2.2,0,0,1-.019-.066A4.97,4.97,0,0,1,409.4,236.3Z" transform="translate(-334.76 -222.742)" fill="#572180"/>
          <path id="Caminho_286" data-name="Caminho 286" d="M396.033,233.757l-4.349,10.859a.2.2,0,0,1-.262.105.2.2,0,0,1-.106-.105l-4.348-10.859a.2.2,0,0,0-.183-.126h-2.376a.2.2,0,0,0-.183.278l5.971,14.168a.2.2,0,0,0,.18.12h2.259a.2.2,0,0,0,.183-.12l5.945-14.168a.2.2,0,0,0-.106-.263.214.214,0,0,0-.074-.015h-2.368A.2.2,0,0,0,396.033,233.757Z" transform="translate(-344.245 -222.746)" fill="#572180"/>
          <path id="Caminho_287" data-name="Caminho 287" d="M386.2,251.7c-.324,0-.675,0-1.019-.032a4.736,4.736,0,0,1-.9-.132v-6.168c.136-.024.278-.049.433-.068s.322-.038.465-.052.322-.019.474-.027h.445a6.357,6.357,0,0,1,1.071.087,2.8,2.8,0,0,1,.858.288,1.438,1.438,0,0,1,.764,1.347,1.344,1.344,0,0,1-.216.768,1.5,1.5,0,0,1-.6.513,1.678,1.678,0,0,1,.851.572,1.571,1.571,0,0,1,.275.951,1.669,1.669,0,0,1-.714,1.471A3.977,3.977,0,0,1,386.2,251.7Zm-.782-3.838h.817a2.387,2.387,0,0,0,1.034-.188.687.687,0,0,0,.378-.674.674.674,0,0,0-.39-.646,2.277,2.277,0,0,0-1.013-.194h-.471a2.683,2.683,0,0,0-.355.028Zm0,.906V250.7c.129,0,.267.024.414.03h.4a4.166,4.166,0,0,0,.663-.049,1.735,1.735,0,0,0,.533-.158.973.973,0,0,0,.358-.322.858.858,0,0,0,.133-.493.782.782,0,0,0-.394-.752,2.367,2.367,0,0,0-1.09-.21Z" transform="translate(-344.208 -217.212)" fill="#572180"/>
          <path id="Caminho_288" data-name="Caminho 288" d="M388.145,248.772a2.948,2.948,0,0,1,.188-1.107,2.321,2.321,0,0,1,.489-.793,2.066,2.066,0,0,1,.714-.479,2.264,2.264,0,0,1,.826-.158,1.979,1.979,0,0,1,1.545.613,2.671,2.671,0,0,1,.564,1.823v.412h-3.162a1.292,1.292,0,0,0,.406.894,1.567,1.567,0,0,0,1.052.324,3.423,3.423,0,0,0,.736-.075,3.13,3.13,0,0,0,.529-.154l.145.906a2.435,2.435,0,0,1-.251.1,3.508,3.508,0,0,1-.368.09c-.136.03-.284.052-.442.071s-.325.025-.488.025a2.932,2.932,0,0,1-1.1-.186,2.076,2.076,0,0,1-.771-.523,2.208,2.208,0,0,1-.449-.787A3.29,3.29,0,0,1,388.145,248.772Zm3.225-.493a1.5,1.5,0,0,0-.064-.436,1.117,1.117,0,0,0-.188-.359.934.934,0,0,0-.3-.238,1,1,0,0,0-.426-.084,1.042,1.042,0,0,0-.449.093,1.014,1.014,0,0,0-.322.253,1.168,1.168,0,0,0-.207.358,2.085,2.085,0,0,0-.1.414Z" transform="translate(-342.366 -216.731)" fill="#572180"/>
          <path id="Caminho_289" data-name="Caminho 289" d="M391.876,246.5a7.557,7.557,0,0,1,1.971-.259,2.637,2.637,0,0,1,.968.161,1.554,1.554,0,0,1,.629.449,1.724,1.724,0,0,1,.322.7,4.026,4.026,0,0,1,.093.894v2.693h-1.106v-2.52a3.631,3.631,0,0,0-.052-.644,1.094,1.094,0,0,0-.164-.439.652.652,0,0,0-.322-.248,1.3,1.3,0,0,0-.482-.078,4.372,4.372,0,0,0-.439.027l-.338.044v3.872h-1.109Z" transform="translate(-340.599 -216.725)" fill="#572180"/>
          <path id="Caminho_290" data-name="Caminho 290" d="M395.314,248.772a2.977,2.977,0,0,1,.189-1.107,2.268,2.268,0,0,1,.5-.793,2.114,2.114,0,0,1,.715-.479,2.232,2.232,0,0,1,.826-.158,1.973,1.973,0,0,1,1.542.613,2.657,2.657,0,0,1,.555,1.833v.412h-3.161a1.288,1.288,0,0,0,.409.894,1.56,1.56,0,0,0,1.049.322,3.548,3.548,0,0,0,.738-.074,2.98,2.98,0,0,0,.526-.155l.145.907a2.156,2.156,0,0,1-.251.1,3.444,3.444,0,0,1-.365.09c-.139.03-.287.052-.445.071a4.525,4.525,0,0,1-.488.027,2.905,2.905,0,0,1-1.1-.188,2.047,2.047,0,0,1-.77-.522,2.126,2.126,0,0,1-.449-.787A3.178,3.178,0,0,1,395.314,248.772Zm3.225-.493a1.4,1.4,0,0,0-.065-.436,1.067,1.067,0,0,0-.186-.359.893.893,0,0,0-.3-.238.991.991,0,0,0-.427-.084,1.041,1.041,0,0,0-.448.093,1.055,1.055,0,0,0-.323.253,1.283,1.283,0,0,0-.205.358,2.087,2.087,0,0,0-.1.414Z" transform="translate(-338.944 -216.731)" fill="#572180"/>
          <path id="Caminho_291" data-name="Caminho 291" d="M400.99,244.747a3.064,3.064,0,0,1,.677.068,3.449,3.449,0,0,1,.439.126l-.21.916a1.641,1.641,0,0,0-.36-.118,1.9,1.9,0,0,0-.446-.049,1.154,1.154,0,0,0-.447.08.719.719,0,0,0-.294.214.842.842,0,0,0-.158.322,1.967,1.967,0,0,0-.046.426v.322h1.743v.923h-1.743v3.871h-1.105v-5.122a2.063,2.063,0,0,1,.483-1.452A1.9,1.9,0,0,1,400.99,244.747Z" transform="translate(-337.168 -217.442)" fill="#572180"/>
          <path id="Caminho_292" data-name="Caminho 292" d="M403.457,245.2l-1.494,1.445-.55-.493,1.346-1.613Zm-.763,6.752h-1.107v-4.791h1.107Z" transform="translate(-336.032 -217.538)" fill="#572180"/>
          <path id="Caminho_293" data-name="Caminho 293" d="M403.048,248.758a2.916,2.916,0,0,1,.164-.994,2.3,2.3,0,0,1,.474-.8,2.193,2.193,0,0,1,.745-.547,2.426,2.426,0,0,1,.991-.189,3.354,3.354,0,0,1,1.29.245l-.245.913a2.4,2.4,0,0,0-.954-.194,1.21,1.21,0,0,0-.987.406,1.739,1.739,0,0,0-.343,1.151,1.806,1.806,0,0,0,.324,1.129,1.286,1.286,0,0,0,1.08.42,2.854,2.854,0,0,0,1.036-.193l.155.916a2.269,2.269,0,0,1-.555.165,4,4,0,0,1-.764.074,2.748,2.748,0,0,1-1.068-.188,2.065,2.065,0,0,1-.752-.522,2.205,2.205,0,0,1-.442-.8A3.225,3.225,0,0,1,403.048,248.758Z" transform="translate(-335.252 -216.734)" fill="#572180"/>
          <path id="Caminho_294" data-name="Caminho 294" d="M407.435,245.587a.641.641,0,0,1-.2.493.675.675,0,0,1-.474.185.7.7,0,0,1-.488-.185.714.714,0,0,1,0-1,.7.7,0,0,1,.488-.185.675.675,0,0,1,.474.185A.638.638,0,0,1,407.435,245.587Zm-.118,6.195h-1.11V246.99h1.11Z" transform="translate(-333.811 -217.366)" fill="#572180"/>
          <path id="Caminho_295" data-name="Caminho 295" d="M412.289,248.744a3.128,3.128,0,0,1-.165,1.036,2.319,2.319,0,0,1-.467.8,2.145,2.145,0,0,1-.73.514,2.35,2.35,0,0,1-.938.183,2.319,2.319,0,0,1-.937-.183,2.114,2.114,0,0,1-.722-.514,2.32,2.32,0,0,1-.474-.8,3.041,3.041,0,0,1-.167-1.036,3,3,0,0,1,.167-1.033,2.357,2.357,0,0,1,.479-.79,2.128,2.128,0,0,1,.728-.51,2.37,2.37,0,0,1,.926-.177,2.419,2.419,0,0,1,.929.177,2.109,2.109,0,0,1,.728.51,2.389,2.389,0,0,1,.471.782A3.016,3.016,0,0,1,412.289,248.744Zm-1.139,0a1.862,1.862,0,0,0-.307-1.132,1.09,1.09,0,0,0-1.53-.182,1.055,1.055,0,0,0-.182.182,1.867,1.867,0,0,0-.322,1.132,1.931,1.931,0,0,0,.322,1.145,1.081,1.081,0,0,0,1.516.2,1.039,1.039,0,0,0,.2-.2A1.9,1.9,0,0,0,411.15,248.744Z" transform="translate(-333.037 -216.73)" fill="#572180"/>
          <path id="Caminho_296" data-name="Caminho 296" d="M412.9,250.348a1.441,1.441,0,0,0,.646-.106.373.373,0,0,0,.2-.36.468.468,0,0,0-.216-.395,3.115,3.115,0,0,0-.71-.322,5.8,5.8,0,0,1-.551-.235,1.747,1.747,0,0,1-.436-.288,1.153,1.153,0,0,1-.29-.4,1.355,1.355,0,0,1-.106-.572,1.259,1.259,0,0,1,.486-1.042,2.111,2.111,0,0,1,1.324-.394,4.421,4.421,0,0,1,1.383.229l-.2.9a2.712,2.712,0,0,0-.465-.151,2.86,2.86,0,0,0-.644-.068,1.167,1.167,0,0,0-.548.112.38.38,0,0,0-.214.356.543.543,0,0,0,.043.21.478.478,0,0,0,.142.17,1.526,1.526,0,0,0,.265.155c.112.052.245.1.4.161a6.121,6.121,0,0,1,.671.288,1.8,1.8,0,0,1,.452.322,1.129,1.129,0,0,1,.261.409,1.609,1.609,0,0,1,.083.548,1.189,1.189,0,0,1-.532,1.055,2.513,2.513,0,0,1-1.451.352,3.853,3.853,0,0,1-1.016-.106,4.6,4.6,0,0,1-.542-.167l.193-.926a4.906,4.906,0,0,0,.59.194A2.987,2.987,0,0,0,412.9,250.348Z" transform="translate(-331.299 -216.73)" fill="#572180"/>
        </g>
      </g>
    </g>
  </g>
</svg>
