<svg xmlns="http://www.w3.org/2000/svg" width="88.857" height="112.431" viewBox="0 0 88.857 112.431"><path id="Caminho_297" fill="#00758d" d="M102.481,32.5H91.241a2.777,2.777,0,0,1,0-5.554H95.6a50.661,50.661,0,0,0-70.61.926,2.8,2.8,0,0,1-3.967-3.967A56.448,56.448,0,0,1,99.7,22.98v-4.5a2.793,2.793,0,0,1,2.777-2.777,2.885,2.885,0,0,1,2.777,2.777V29.723A2.793,2.793,0,0,1,102.481,32.5Zm-83.3,79.2a2.793,2.793,0,0,0,2.777-2.777v-4.5a56.377,56.377,0,0,0,78.676-1.058,2.8,2.8,0,0,0-3.967-3.967,50.467,50.467,0,0,1-70.61,1.058h4.364a2.793,2.793,0,0,0,2.777-2.777,2.885,2.885,0,0,0-2.777-2.777H19.177A2.793,2.793,0,0,0,16.4,97.689v11.239A2.885,2.885,0,0,0,19.177,111.7ZM26.449,68.6l2.38-1.058a26.594,26.594,0,0,1,0-7.934l-2.38-.926a5.75,5.75,0,0,1-3.173-3.173,5.343,5.343,0,0,1,0-4.5l1.983-4.892a5.869,5.869,0,0,1,5.421-3.7,6.177,6.177,0,0,1,2.248.4l2.38,1.058a28.293,28.293,0,0,1,5.686-5.554l-.926-2.38a5.343,5.343,0,0,1,0-4.5,5.75,5.75,0,0,1,3.173-3.173l4.892-1.983a6.177,6.177,0,0,1,2.248-.4,5.869,5.869,0,0,1,5.421,3.7l1.058,2.38a39.768,39.768,0,0,1,7.934,0l1.058-2.38a5.869,5.869,0,0,1,5.421-3.7,6.177,6.177,0,0,1,2.248.4l4.892,1.983a5.877,5.877,0,0,1,3.173,7.8l-.926,2.248A28.293,28.293,0,0,1,86.216,44l2.38-1.058a6.177,6.177,0,0,1,2.248-.4,5.869,5.869,0,0,1,5.421,3.7l1.983,4.892a5.343,5.343,0,0,1,0,4.5,5.75,5.75,0,0,1-3.173,3.173l-2.248.926a26.594,26.594,0,0,1,0,7.934l2.38,1.058A5.75,5.75,0,0,1,98.382,71.9a5.343,5.343,0,0,1,0,4.5L96.4,81.292a5.8,5.8,0,0,1-5.554,3.57h0a6.176,6.176,0,0,1-2.248-.4l-2.38-.926a28.293,28.293,0,0,1-5.686,5.554l1.058,2.38a5.343,5.343,0,0,1,0,4.5,5.75,5.75,0,0,1-3.173,3.173l-4.892,1.983a6.177,6.177,0,0,1-2.248.4,5.869,5.869,0,0,1-5.421-3.7L64.8,95.705a39.766,39.766,0,0,1-7.934,0L55.8,98.085a5.869,5.869,0,0,1-5.421,3.7,6.177,6.177,0,0,1-2.248-.4l-4.892-1.983a5.75,5.75,0,0,1-3.173-3.173,5.343,5.343,0,0,1,0-4.5l1.058-2.38a28.293,28.293,0,0,1-5.554-5.686l-2.512.793a6.176,6.176,0,0,1-2.248.4,5.869,5.869,0,0,1-5.421-3.7l-1.983-4.892a5.343,5.343,0,0,1,0-4.5A5.493,5.493,0,0,1,26.449,68.6Zm1.983,5.686,1.983,4.892c.132.264.264.264.4.132l4.5-1.851a2.78,2.78,0,0,1,3.438,1.058,25.4,25.4,0,0,0,7.273,7.273,2.893,2.893,0,0,1,1.058,3.438l-1.851,4.5v.264a.129.129,0,0,0,.132.132L50.25,96.1a.486.486,0,0,0,.4-.132l1.851-4.5a2.931,2.931,0,0,1,3.173-1.719,27.064,27.064,0,0,0,10.314,0h.529a3.04,3.04,0,0,1,2.645,1.719l1.851,4.5c.132.264.264.264.4.132L76.3,94.118a.13.13,0,0,0,.132-.132v-.264l-1.851-4.5a2.78,2.78,0,0,1,1.058-3.438,25.4,25.4,0,0,0,7.273-7.273,2.893,2.893,0,0,1,3.438-1.058l4.5,1.851a.486.486,0,0,0,.4-.132l1.983-4.892V74.02a.13.13,0,0,0-.132-.132l-4.5-1.851a2.931,2.931,0,0,1-1.719-3.173,27.064,27.064,0,0,0,0-10.314A2.781,2.781,0,0,1,88.6,55.376l4.5-1.851a.13.13,0,0,0,.132-.132v-.264l-1.983-4.892c-.132-.264-.264-.264-.4-.132l-4.5,1.851A2.78,2.78,0,0,1,82.911,48.9a25.4,25.4,0,0,0-7.273-7.273,2.893,2.893,0,0,1-1.058-3.438l1.851-4.5a.253.253,0,0,0-.132-.4L71.407,31.31a.486.486,0,0,0-.4.132l-1.851,4.5a2.931,2.931,0,0,1-3.173,1.719,27.064,27.064,0,0,0-10.314,0A2.781,2.781,0,0,1,52.5,35.938l-1.851-4.5c-.132-.264-.264-.264-.4-.132l-4.892,1.983a.13.13,0,0,0-.132.132v.264l1.851,4.5a2.78,2.78,0,0,1-1.058,3.438A25.4,25.4,0,0,0,38.747,48.9a2.893,2.893,0,0,1-3.438,1.058l-4.5-1.851a.486.486,0,0,0-.4.132l-1.983,4.892v.264a.13.13,0,0,0,.132.132l4.5,1.851a2.931,2.931,0,0,1,1.719,3.173,27.064,27.064,0,0,0,0,10.314,2.781,2.781,0,0,1-1.719,3.173l-4.5,1.851a.13.13,0,0,0-.132.132Zm16.925-4.231a16.727,16.727,0,0,1,15.471-23.14,15.791,15.791,0,0,1,6.479,1.322A16.756,16.756,0,0,1,60.961,80.5a15.791,15.791,0,0,1-6.479-1.322A16.285,16.285,0,0,1,45.358,70.053Zm5.157-2.116a10.976,10.976,0,0,0,10.314,6.876,11.273,11.273,0,0,0,10.314-6.876,10.792,10.792,0,0,0,0-8.595,10.976,10.976,0,0,0-10.314-6.876,11.273,11.273,0,0,0-10.314,6.876A10.792,10.792,0,0,0,50.515,67.937Z" data-name="Caminho 297" transform="translate(-16.4 -7.472)"/></svg>