<svg xmlns="http://www.w3.org/2000/svg" width="202.444" height="106.659" viewBox="0 0 202.444 106.659">
  <g id="Grupo_488" data-name="Grupo 488" transform="translate(-339.551 -3462.86)">
    <path id="Caminho_351" data-name="Caminho 351" d="M339.551,3550.406v-47.869h9.69v2.637a13.761,13.761,0,0,1,4.266-2.522,14.5,14.5,0,0,1,4.984-.809,14.1,14.1,0,0,1,10.973,4.66c2.81,3.1,4.22,7.157,4.22,12.14s-1.41,9-4.22,12.083a14.154,14.154,0,0,1-10.973,4.625,15.024,15.024,0,0,1-4.845-.752,12.248,12.248,0,0,1-4.035-2.3v18.107Zm10.06-38.792v13.759a9.88,9.88,0,0,0,2.694,1.492,8.383,8.383,0,0,0,2.833.508,7.5,7.5,0,0,0,5.862-2.359,9.259,9.259,0,0,0,2.139-6.451,9.566,9.566,0,0,0-2.116-6.487,7,7,0,0,0-5.585-2.463,8.972,8.972,0,0,0-2.948.5,10.74,10.74,0,0,0-2.879,1.5" fill="#004c6d" fill-rule="evenodd"/>
    <path id="Caminho_352" data-name="Caminho 352" d="M395.516,3530.634a15.826,15.826,0,0,1-4.972,3.551,15.04,15.04,0,0,1-5.92,1.1q-5.272,0-8.117-3.2t-2.844-9.2v-20.339h10.129v18.951a8.943,8.943,0,0,0,1.1,5.006,3.879,3.879,0,0,0,3.434,1.574,6.835,6.835,0,0,0,3.932-1.272,11.124,11.124,0,0,0,3.26-3.781v-20.478h10.129v32.121H395.516Z" fill="#004c6d" fill-rule="evenodd"/>
    <rect id="Retângulo_203" data-name="Retângulo 203" width="10.129" height="47.383" transform="translate(406.16 3487.275)" fill="#004c6d"/>
    <path id="Caminho_353" data-name="Caminho 353" d="M416.9,3532.935v-7.157a43.731,43.731,0,0,0,5.643,2.15,15.975,15.975,0,0,0,4.359.763,8.375,8.375,0,0,0,3.619-.612,1.947,1.947,0,0,0,1.225-1.828,2.348,2.348,0,0,0-.913-1.815,17.95,17.95,0,0,0-4.174-2.15c-.22-.093-.59-.232-1.087-.44q-9.227-3.816-9.227-9.816a8.992,8.992,0,0,1,3.411-7.342q3.4-2.777,9.031-2.775a24.571,24.571,0,0,1,5.7.635,23.591,23.591,0,0,1,5.239,1.931v7.076a33.847,33.847,0,0,0-5.689-2.474,15.44,15.44,0,0,0-4.591-.786,5.166,5.166,0,0,0-2.821.648,2.052,2.052,0,0,0-.983,1.826q0,1.562,5.493,3.827c1.492.59,2.67,1.076,3.526,1.469a12.263,12.263,0,0,1,5.122,3.653,8.533,8.533,0,0,1,1.608,5.3,9.127,9.127,0,0,1-3.434,7.654c-2.3,1.792-5.55,2.683-9.783,2.683a29.294,29.294,0,0,1-5.977-.59,22.4,22.4,0,0,1-5.3-1.826" fill="#004c6d" fill-rule="evenodd"/>
    <path id="Caminho_354" data-name="Caminho 354" d="M451.4,3515.441l12.487-.035a8.026,8.026,0,0,0-1.885-4.867,5.394,5.394,0,0,0-4.15-1.758,5.82,5.82,0,0,0-4.336,1.758,8.352,8.352,0,0,0-2.116,4.9m20.856,17.472c-7.658,3.307-18.421,5.528-26.625-2.1-3.186-2.963-4.707-7.215-4.707-12.569q0-7.406,4.6-11.875t12.268-4.451a13.058,13.058,0,0,1,10.842,4.821q4.37,4.823,4.37,13.3v.336H451.33v.138a7.492,7.492,0,0,0,2.614,6.036c4.3,3.667,14.262,2.025,18.312-.774Z" fill="#004c6d" fill-rule="evenodd"/>
    <path id="Caminho_355" data-name="Caminho 355" d="M472.838,3532.935v-7.157a43.621,43.621,0,0,0,5.643,2.15,15.975,15.975,0,0,0,4.358.763,8.38,8.38,0,0,0,3.62-.612,1.949,1.949,0,0,0,1.225-1.828,2.348,2.348,0,0,0-.913-1.815,17.973,17.973,0,0,0-4.174-2.15c-.22-.093-.59-.232-1.087-.44q-9.227-3.816-9.227-9.816a8.991,8.991,0,0,1,3.41-7.342q3.4-2.777,9.032-2.775a24.571,24.571,0,0,1,5.7.635,23.565,23.565,0,0,1,5.238,1.931v7.076a33.84,33.84,0,0,0-5.688-2.474,15.445,15.445,0,0,0-4.591-.786,5.164,5.164,0,0,0-2.821.648,2.05,2.05,0,0,0-.983,1.826q0,1.562,5.492,3.827c1.492.59,2.671,1.076,3.527,1.469a12.27,12.27,0,0,1,5.122,3.653,8.538,8.538,0,0,1,1.607,5.3,9.126,9.126,0,0,1-3.433,7.654c-2.3,1.792-5.551,2.683-9.783,2.683a29.287,29.287,0,0,1-5.977-.59,22.388,22.388,0,0,1-5.3-1.826" fill="#004c6d" fill-rule="evenodd"/>
    <path id="Caminho_356" data-name="Caminho 356" d="M505.963,3521.309a5.4,5.4,0,0,0-5.168,3.847,17.221,17.221,0,0,1-16.448,12.259,17.257,17.257,0,0,1-4.968-.734,5.4,5.4,0,1,0-3.1,10.34,28.122,28.122,0,0,0,7.439,1.187h1.3A28.153,28.153,0,0,0,506,3537.949a5.4,5.4,0,0,1-.224-5.662,24.535,24.535,0,0,0,3.1-10.125,5.414,5.414,0,0,0-2.913-.853" fill="#009fdf"/>
    <path id="Caminho_357" data-name="Caminho 357" d="M495.353,3490.122a5.406,5.406,0,0,0-1.7,3.9v.052a5.4,5.4,0,0,0,2.751,4.683,24.677,24.677,0,0,1,12.474,23.4,5.4,5.4,0,0,1,2.258,6.1,27.938,27.938,0,0,1-5.134,9.688,5.4,5.4,0,0,0,9.182-.366,35.2,35.2,0,0,0,4.517-15.826,5.4,5.4,0,0,1-3.476-4.554,32.09,32.09,0,0,0-20.869-27.081" fill="#ffbb10"/>
    <path id="Caminho_358" data-name="Caminho 358" d="M508.876,3522.162a24.513,24.513,0,0,1-3.1,10.125,5.4,5.4,0,0,0,.225,5.662,27.957,27.957,0,0,0,5.135-9.688,5.4,5.4,0,0,0-2.258-6.1" fill="#298643"/>
    <path id="Caminho_359" data-name="Caminho 359" d="M484.913,3477.379H483.56a42.518,42.518,0,0,0-25.52,9.016,5.389,5.389,0,0,0-2.085,4.223v.084a5.4,5.4,0,0,0,8.71,4.216,31.788,31.788,0,0,1,19.6-6.746,32.681,32.681,0,0,1,4.047.253,32.26,32.26,0,0,1,7.044,1.7,5.42,5.42,0,0,1,3.654-1.463h.1a5.383,5.383,0,0,1,2.6.7,35.449,35.449,0,0,1,18,32.4,5.357,5.357,0,0,0,1.865.344h.054c.158,0,.319-.009.48-.024a5.374,5.374,0,0,0,1.67-.43,39.778,39.778,0,0,0-.817-9.477,5.4,5.4,0,0,1,2.044-5.418,42.876,42.876,0,0,0-35.344-29.039,43.576,43.576,0,0,0-4.737-.334" fill="#e50f49"/>
    <path id="Caminho_360" data-name="Caminho 360" d="M499.1,3488.659h-.1a5.41,5.41,0,0,0-3.652,1.463,32.09,32.09,0,0,1,20.869,27.081,5.4,5.4,0,0,0,3.476,4.554,35.449,35.449,0,0,0-18-32.4,5.375,5.375,0,0,0-2.594-.7" fill="#e71826"/>
    <path id="Caminho_361" data-name="Caminho 361" d="M528.238,3505.672a5.412,5.412,0,0,0-3.244,1.08,42.568,42.568,0,0,1,1.976,9.45,5.4,5.4,0,0,1-3.2,5.445,39.5,39.5,0,0,1-31.4,37.19,5.4,5.4,0,0,0-4.3,5.212v.133a5.4,5.4,0,0,0,5.355,5.337h.077a5.348,5.348,0,0,0,1.067-.114,50.376,50.376,0,0,0,38.949-38.8,5.4,5.4,0,0,1-2.6-5.234,46.6,46.6,0,0,0-2.016-19.655,5.348,5.348,0,0,0-.658-.041" fill="#98c13b"/>
    <path id="Caminho_362" data-name="Caminho 362" d="M524.994,3506.752a5.4,5.4,0,0,0-2.045,5.419,39.713,39.713,0,0,1,.818,9.476,5.4,5.4,0,0,0,3.2-5.445,42.618,42.618,0,0,0-1.978-9.45" fill="#921e2b"/>
    <path id="Caminho_363" data-name="Caminho 363" d="M490.07,3462.86a5.4,5.4,0,0,0-5.359,4.8,5.079,5.079,0,0,0-.034.521v.156a5.4,5.4,0,0,0,4.8,5.281,46.94,46.94,0,0,1,39.414,32.09,5.4,5.4,0,0,1,4.623,4.257,50.782,50.782,0,0,1,1.064,9.484v1.719a49.66,49.66,0,0,1-1.068,9.428,5.394,5.394,0,0,0,2.168.726q.283.03.562.033h.078a5.4,5.4,0,0,0,5.319-4.8,57.733,57.733,0,0,0-50.971-63.663,5.806,5.806,0,0,0-.6-.033" fill="#8d1768"/>
    <path id="Caminho_364" data-name="Caminho 364" d="M528.9,3505.713a46.615,46.615,0,0,1,2.016,19.655,5.4,5.4,0,0,0,2.6,5.234,49.74,49.74,0,0,0,1.068-9.429v-1.719a50.69,50.69,0,0,0-1.064-9.483,5.4,5.4,0,0,0-4.622-4.258" fill="#641f28"/>
  </g>
</svg>
