<svg xmlns="http://www.w3.org/2000/svg" width="95.948" height="104.312" viewBox="0 0 95.948 104.312"><g id="Grupo_464" data-name="Grupo 464" transform="translate(-1421.359 -1442)"><path id="Caminho_300" fill="#00758d" d="M8.2,80.734V95.425a5.739,5.739,0,0,0,5.739,5.739H65.011a33.631,33.631,0,0,0,9.411,6.083l2.106.91a5.738,5.738,0,0,0,4.32.1l2.641-1.007a33.626,33.626,0,0,0,20.659-31.1V61.221a5.738,5.738,0,0,0-3.036-5.061L81.553,45.716a5.741,5.741,0,0,0-5.508.056l-7.516,4.212a5.669,5.669,0,0,1-5.706-.06,36.03,36.03,0,0,0-5.157-2.588,23.642,23.642,0,1,0-26.971,0A36.036,36.036,0,0,0,8.2,80.734ZM78.9,52.157l18.363,9.87V76.144a26.742,26.742,0,0,1-16.527,24.676l-2.066.8-1.607-.689A26.854,26.854,0,0,1,60.994,76.373V61.912ZM27.367,27.94a16.7,16.7,0,1,1,0,.115ZM44.238,51.583A29.158,29.158,0,0,1,58.7,55.37l-1.618.889a5.741,5.741,0,0,0-2.973,5.028V76.373a33.634,33.634,0,0,0,1.665,10.449A5.718,5.718,0,0,1,50.3,94.277H20.825a5.739,5.739,0,0,1-5.739-5.739v-7.8A29.152,29.152,0,0,1,44.238,51.583Z" data-name="Caminho 300" transform="translate(1413.159 1437.684)"/><path id="Caminho_301" fill="#00758d" d="M68.015,79.844v-.115l.115.115,2.525-2.181L86.607,64.579,82.361,59.3,68.933,70.2l-5.853-6.886L57.8,67.793,65.834,77.2Z" data-name="Caminho 301" transform="translate(1420.485 1445.805)"/></g></svg>