<svg xmlns="http://www.w3.org/2000/svg" width="176.78" height="76.569" viewBox="0 0 176.78 76.569"><g id="Grupo_427" data-name="Grupo 427" transform="translate(0 0)"><g id="Grupo_425" data-name="Grupo 425" transform="translate(0 0)"><g id="Grupo_423" data-name="Grupo 423" transform="translate(0 0)"><g id="Grupo_422" data-name="Grupo 422"><path id="Caminho_317" fill="#6a3483" d="M1671.473,692.294a38.285,38.285,0,1,1,38.285-38.285A38.328,38.328,0,0,1,1671.473,692.294Zm0-71.518a33.233,33.233,0,1,0,33.234,33.233A33.271,33.271,0,0,0,1671.473,620.776Z" data-name="Caminho 317" transform="translate(-1633.189 -615.725)"/></g><path id="Caminho_318" fill="#6a3483" d="M1699.218,661.746l1.586-3.807a.644.644,0,0,0-.594-.892h-5.818l4.884-11.592a.643.643,0,0,0-.593-.894h-5.338a.644.644,0,0,0-.6.4l-12.934,32.293a.644.644,0,0,1-1.2,0l-12.934-32.293a.644.644,0,0,0-.6-.4h-5.338a.643.643,0,0,0-.593.894l4.883,11.592h-5.775a.644.644,0,0,0-.595.892l1.586,3.807a.644.644,0,0,0,.595.4h6.337l2.169,5.15h-5.761a.644.644,0,0,0-.594.892l1.585,3.807a.645.645,0,0,0,.595.4h6.322l5.338,12.669a.642.642,0,0,0,.593.394H1682a.643.643,0,0,0,.593-.394l5.338-12.669h6.352a.642.642,0,0,0,.594-.4l1.586-3.807a.644.644,0,0,0-.594-.892h-5.79l2.169-5.15h6.38A.643.643,0,0,0,1699.218,661.746Z" data-name="Caminho 318" transform="translate(-1640.95 -624.888)"/></g><g id="Grupo_424" data-name="Grupo 424" transform="translate(84.229 22.936)"><path id="Caminho_319" fill="#6a3483" d="M1825.073,666.709a.4.4,0,0,0-.222.281,10.716,10.716,0,0,1-9.187,8.343,10.472,10.472,0,0,1-8.932-3.179.415.415,0,0,1,.114-.663l21.85-10.865a.621.621,0,0,0,.3-.587c-.291-2.559-5.769-12.146-17.1-10.4a15.5,15.5,0,0,0-12.755,16.349c.051,3.394,3.457,13.021,13.979,14.023.442.039.886.059,1.329.059a16.087,16.087,0,0,0,10.009-3.726,15.108,15.108,0,0,0,5.349-11.263.412.412,0,0,0-.593-.378Zm-14.737-11.744a10.873,10.873,0,0,1,4.172-.87,10.459,10.459,0,0,1,7.518,3.171.481.481,0,0,1-.15.726l-17.321,8.574a.42.42,0,0,1-.6-.328A10.568,10.568,0,0,1,1810.336,654.965Z" data-name="Caminho 319" transform="translate(-1770.141 -649.369)"/><path id="Caminho_320" fill="#6a3483" d="M1873.271,666.709a.4.4,0,0,0-.222.281,10.714,10.714,0,0,1-9.187,8.343,10.471,10.471,0,0,1-8.932-3.179.414.414,0,0,1,.115-.663l21.849-10.865a.622.622,0,0,0,.3-.587c-.291-2.559-5.769-12.146-17.1-10.4a15.5,15.5,0,0,0-12.755,16.349c.051,3.394,3.457,13.021,13.979,14.023q.664.059,1.329.059a16.086,16.086,0,0,0,10.009-3.726,15.11,15.11,0,0,0,5.349-11.263.412.412,0,0,0-.593-.378Zm-14.737-11.744a10.872,10.872,0,0,1,4.173-.87,10.456,10.456,0,0,1,7.517,3.171.481.481,0,0,1-.151.726l-17.32,8.574a.419.419,0,0,1-.6-.328A10.566,10.566,0,0,1,1858.534,654.965Z" data-name="Caminho 320" transform="translate(-1785.456 -649.369)"/><path id="Caminho_321" fill="#6a3483" d="M1781.567,649.605l-9.167,22.887a.417.417,0,0,1-.775,0l-9.167-22.887a.417.417,0,0,0-.387-.262h-5.008a.418.418,0,0,0-.385.58l12.583,29.862a.417.417,0,0,0,.385.255h4.733a.418.418,0,0,0,.385-.255l12.582-29.862a.418.418,0,0,0-.385-.58h-5.007A.417.417,0,0,0,1781.567,649.605Z" data-name="Caminho 321" transform="translate(-1756.645 -649.343)"/></g></g><g id="Grupo_426" data-name="Grupo 426" transform="translate(84.468 56.923)"><path id="Caminho_322" fill="#6a3483" d="M1761.031,715.889q-1.062,0-2.145-.068a9.911,9.911,0,0,1-1.892-.28v-13q.425-.076.908-.145t.984-.106q.5-.039.995-.058t.937-.019a13.081,13.081,0,0,1,2.26.183,5.74,5.74,0,0,1,1.806.608,3.162,3.162,0,0,1,1.188,1.12,3.237,3.237,0,0,1,.425,1.719,2.843,2.843,0,0,1-.454,1.622,3.209,3.209,0,0,1-1.266,1.081,3.521,3.521,0,0,1,1.8,1.2,3.313,3.313,0,0,1,.58,2.008,3.508,3.508,0,0,1-1.507,3.1A8.246,8.246,0,0,1,1761.031,715.889Zm-1.642-8.092h1.719a4.962,4.962,0,0,0,2.183-.4,1.448,1.448,0,0,0,.792-1.42,1.411,1.411,0,0,0-.821-1.371,4.827,4.827,0,0,0-2.134-.406q-.561,0-1,.019t-.744.058Zm0,1.911v4.075q.406.039.869.058c.309.014.592.019.85.019a9.515,9.515,0,0,0,1.4-.1,3.632,3.632,0,0,0,1.121-.338,2,2,0,0,0,.752-.647,1.791,1.791,0,0,0,.28-1.043,1.638,1.638,0,0,0-.831-1.584,4.921,4.921,0,0,0-2.3-.445Z" data-name="Caminho 322" transform="translate(-1756.995 -700.13)"/><path id="Caminho_323" fill="#6a3483" d="M1774.6,712.208a6.34,6.34,0,0,1,.4-2.337,4.915,4.915,0,0,1,1.052-1.671,4.357,4.357,0,0,1,1.507-1,4.669,4.669,0,0,1,1.738-.338,4.16,4.16,0,0,1,3.254,1.294,5.6,5.6,0,0,1,1.169,3.862c0,.129,0,.274-.01.435s-.016.306-.029.435h-6.662a2.659,2.659,0,0,0,.859,1.882,3.261,3.261,0,0,0,2.211.666,7.23,7.23,0,0,0,1.555-.155,6.306,6.306,0,0,0,1.11-.327l.309,1.912a3.812,3.812,0,0,1-.531.2,7.543,7.543,0,0,1-.772.192q-.435.087-.937.146a9.1,9.1,0,0,1-1.023.058,6.219,6.219,0,0,1-2.318-.4,4.314,4.314,0,0,1-1.623-1.1,4.509,4.509,0,0,1-.945-1.66A6.783,6.783,0,0,1,1774.6,712.208Zm6.779-1.043a3.061,3.061,0,0,0-.134-.917,2.237,2.237,0,0,0-.4-.753,1.876,1.876,0,0,0-.638-.5,2.034,2.034,0,0,0-.9-.184,2.1,2.1,0,0,0-.946.2,2.145,2.145,0,0,0-.686.532,2.422,2.422,0,0,0-.436.753,4.083,4.083,0,0,0-.211.869Z" data-name="Caminho 323" transform="translate(-1762.589 -701.605)"/><path id="Caminho_324" fill="#6a3483" d="M1791.586,707.455a15.659,15.659,0,0,1,1.758-.367,15.123,15.123,0,0,1,2.394-.174,5.508,5.508,0,0,1,2.066.338,3.215,3.215,0,0,1,1.323.946,3.6,3.6,0,0,1,.7,1.467,8.172,8.172,0,0,1,.2,1.883v5.678h-2.337v-5.311a7.688,7.688,0,0,0-.106-1.381,2.44,2.44,0,0,0-.348-.927,1.39,1.39,0,0,0-.656-.521,2.772,2.772,0,0,0-1.013-.164,7.722,7.722,0,0,0-.927.058q-.483.057-.715.1v8.15h-2.336Z" data-name="Caminho 324" transform="translate(-1767.986 -701.622)"/><path id="Caminho_325" fill="#6a3483" d="M1807.323,712.208a6.335,6.335,0,0,1,.4-2.337,4.916,4.916,0,0,1,1.052-1.671,4.358,4.358,0,0,1,1.506-1,4.666,4.666,0,0,1,1.738-.338,4.16,4.16,0,0,1,3.255,1.294,5.6,5.6,0,0,1,1.168,3.862c0,.129,0,.274-.01.435s-.016.306-.029.435h-6.663a2.661,2.661,0,0,0,.859,1.882,3.264,3.264,0,0,0,2.211.666,7.23,7.23,0,0,0,1.555-.155,6.277,6.277,0,0,0,1.11-.327l.31,1.912a3.822,3.822,0,0,1-.531.2,7.517,7.517,0,0,1-.772.192q-.435.087-.937.146a9.1,9.1,0,0,1-1.024.058,6.221,6.221,0,0,1-2.318-.4,4.314,4.314,0,0,1-1.622-1.1,4.511,4.511,0,0,1-.946-1.66A6.791,6.791,0,0,1,1807.323,712.208Zm6.779-1.043a3.061,3.061,0,0,0-.135-.917,2.2,2.2,0,0,0-.4-.753,1.862,1.862,0,0,0-.636-.5,2.036,2.036,0,0,0-.9-.184,2.1,2.1,0,0,0-.946.2,2.147,2.147,0,0,0-.686.532,2.421,2.421,0,0,0-.435.753,4.129,4.129,0,0,0-.212.869Z" data-name="Caminho 325" transform="translate(-1772.986 -701.605)"/><path id="Caminho_326" fill="#6a3483" d="M1828.421,700.065a6.291,6.291,0,0,1,1.429.145,8.118,8.118,0,0,1,.927.261l-.444,1.931a3.717,3.717,0,0,0-.763-.251,4.323,4.323,0,0,0-.937-.1,2.424,2.424,0,0,0-.946.164,1.552,1.552,0,0,0-.618.454,1.757,1.757,0,0,0-.328.7,3.945,3.945,0,0,0-.1.9v.675h3.67V706.9h-3.67v8.15h-2.337V704.236a4.347,4.347,0,0,1,1.023-3.061A4.005,4.005,0,0,1,1828.421,700.065Z" data-name="Caminho 326" transform="translate(-1778.383 -699.446)"/><path id="Caminho_327" fill="#6a3483" d="M1839.427,700.529l-3.147,3.052-1.159-1.043,2.839-3.38Zm-1.6,14.233h-2.336v-10.1h2.336Z" data-name="Caminho 327" transform="translate(-1781.819 -699.158)"/><path id="Caminho_328" fill="#6a3483" d="M1842.621,712.169a6.19,6.19,0,0,1,.348-2.1,4.96,4.96,0,0,1,1-1.69,4.575,4.575,0,0,1,1.573-1.12,5.158,5.158,0,0,1,2.086-.405,7.066,7.066,0,0,1,2.7.521l-.5,1.912a5.3,5.3,0,0,0-.917-.29,4.934,4.934,0,0,0-1.091-.116,2.556,2.556,0,0,0-2.086.86,3.685,3.685,0,0,0-.714,2.424,3.817,3.817,0,0,0,.675,2.384,2.7,2.7,0,0,0,2.279.879,6.008,6.008,0,0,0,1.178-.116,5.588,5.588,0,0,0,1-.289l.328,1.931a4.814,4.814,0,0,1-1.168.348,8.367,8.367,0,0,1-1.613.155,5.881,5.881,0,0,1-2.25-.4,4.261,4.261,0,0,1-1.583-1.1,4.554,4.554,0,0,1-.937-1.68A6.948,6.948,0,0,1,1842.621,712.169Z" data-name="Caminho 328" transform="translate(-1784.202 -701.605)"/><path id="Caminho_329" fill="#6a3483" d="M1859.283,702.22a1.34,1.34,0,0,1-.425,1.043,1.443,1.443,0,0,1-1,.386,1.468,1.468,0,0,1-1.023-.386,1.341,1.341,0,0,1-.425-1.043,1.365,1.365,0,0,1,.425-1.062,1.468,1.468,0,0,1,1.023-.386,1.443,1.443,0,0,1,1,.386A1.364,1.364,0,0,1,1859.283,702.22Zm-.251,13.055H1856.7v-10.1h2.336Z" data-name="Caminho 329" transform="translate(-1788.582 -699.671)"/><path id="Caminho_330" fill="#6a3483" d="M1873.489,712.15a6.534,6.534,0,0,1-.347,2.183,4.842,4.842,0,0,1-.985,1.681,4.432,4.432,0,0,1-1.536,1.081,4.977,4.977,0,0,1-1.98.386,4.905,4.905,0,0,1-1.97-.386,4.45,4.45,0,0,1-1.526-1.081,4.965,4.965,0,0,1-.994-1.681,6.369,6.369,0,0,1-.357-2.183,6.286,6.286,0,0,1,.357-2.172,4.886,4.886,0,0,1,1-1.671,4.446,4.446,0,0,1,1.535-1.072,4.949,4.949,0,0,1,1.951-.376,5.021,5.021,0,0,1,1.96.376,4.322,4.322,0,0,1,1.535,1.072,4.959,4.959,0,0,1,.994,1.671A6.275,6.275,0,0,1,1873.489,712.15Zm-2.395,0a3.942,3.942,0,0,0-.647-2.385,2.294,2.294,0,0,0-3.611,0,3.937,3.937,0,0,0-.647,2.385,4.015,4.015,0,0,0,.647,2.414,2.279,2.279,0,0,0,3.611,0A4.02,4.02,0,0,0,1871.094,712.15Z" data-name="Caminho 330" transform="translate(-1790.93 -701.605)"/><path id="Caminho_331" fill="#6a3483" d="M1883.713,715.53a3.076,3.076,0,0,0,1.352-.222.789.789,0,0,0,.425-.763.991.991,0,0,0-.454-.831,6.662,6.662,0,0,0-1.5-.714,11.926,11.926,0,0,1-1.168-.493,3.959,3.959,0,0,1-.918-.609,2.493,2.493,0,0,1-.608-.84,2.923,2.923,0,0,1-.222-1.208,2.635,2.635,0,0,1,1.024-2.192,4.4,4.4,0,0,1,2.781-.8,8.563,8.563,0,0,1,1.7.164,8.171,8.171,0,0,1,1.216.319l-.424,1.893a5.742,5.742,0,0,0-.984-.319,6.012,6.012,0,0,0-1.391-.145,2.425,2.425,0,0,0-1.16.242.793.793,0,0,0-.443.744,1.065,1.065,0,0,0,.086.444.956.956,0,0,0,.3.357,2.983,2.983,0,0,0,.561.329,8.77,8.77,0,0,0,.849.338,13.106,13.106,0,0,1,1.409.609,3.83,3.83,0,0,1,.957.676,2.305,2.305,0,0,1,.55.86,3.424,3.424,0,0,1,.174,1.158,2.5,2.5,0,0,1-1.072,2.192,5.339,5.339,0,0,1-3.061.744,8.376,8.376,0,0,1-2.143-.223,10.635,10.635,0,0,1-1.141-.357l.406-1.95a10.3,10.3,0,0,0,1.246.4A6.374,6.374,0,0,0,1883.713,715.53Z" data-name="Caminho 331" transform="translate(-1796.209 -701.605)"/></g></g></svg>